<svg xmlns="http://www.w3.org/2000/svg" width="27" height="49" viewBox="0 0 26.37 48.53"><defs><style>.cls-1,.cls-3{fill:#7ca400;}.cls-2{fill:#030508;}.cls-3{fill-rule:evenodd;}.cls-4{fill:#fff;}</style></defs><g id="Calque_2" data-name="Calque 2"><g id="Calque_1-2" data-name="Calque 1"><path id="Tracé_101" data-name="Tracé 101" class="cls-1" d="M12.64,7.3a1,1,0,0,1-.36-.39c-.07-.14-.09-.86-.14-1a18.93,18.93,0,0,1-.22-4.12c0-.72-.07-1.54.12-1.6A3.69,3.69,0,0,1,12.69,0a3.77,3.77,0,0,1,2.06.64V.93l.13.36,0,.51v3l-.08.34v.55c-.11.8-.31,1.66-.45,1.67l-.3,0-.19,0Z"/><path id="Tracé_102" data-name="Tracé 102" class="cls-1" d="M6.42,9.81l-.15.12-.94.4c-.12.08-.8-.57-1.36-1.2l-.32-.48L3.38,8.4,1.6,5.75l-.25-.48-.11-.38-.17-.25c0-.22,1-1.25,1.53-1.48.16-.07.35.34.64.27s.62.7,1,1.33a16.52,16.52,0,0,1,2,3.34c0,.16.45.8.48,1a1.08,1.08,0,0,1-.08.53Z"/><path id="Tracé_103" data-name="Tracé 103" class="cls-1" d="M19.51,9.67a1.08,1.08,0,0,1-.08-.53c0-.16.43-.8.48-1a16.48,16.48,0,0,1,2-3.34c.43-.62.85-1.38,1.05-1.33s.48-.57.64-.5A4.28,4.28,0,0,1,25.1,4.72L24.92,5l-.1.38-.25.47L22.79,8.48l-.27.25-.33.48c-.55.64-1.23,1.28-1.35,1.21L19.9,10l-.15-.12Z"/><g id="Groupe_135" data-name="Groupe 135"><path id="Tracé_104" data-name="Tracé 104" class="cls-2" d="M19.68,28.28s.16.46.13.18C19.67,27.81,19.63,28,19.68,28.28Z"/><path id="Tracé_105" data-name="Tracé 105" class="cls-2" d="M15.86,15.31c.1.17.18.34.27.5-.12-.28-.26-.56-.39-.83Z"/><path id="Tracé_106" data-name="Tracé 106" class="cls-2" d="M18.35,10.12c.37.26.5.35.52.33s-.09-.14-.24-.25S18.05,9.88,18.35,10.12Z"/><path id="Tracé_107" data-name="Tracé 107" class="cls-2" d="M26.29,26.11A29,29,0,0,0,25.88,23a.69.69,0,0,1,0,.32A25.73,25.73,0,0,0,24,17a16.43,16.43,0,0,0-3.32-4.91,17,17,0,0,1,2.37,3.5,39.64,39.64,0,0,1,1.7,3.9A17.51,17.51,0,0,1,25.33,22c.32,1.63.48,2.78.61,3.93a25.09,25.09,0,0,1,.12,3.88c0,.23,0,.29-.06.3h0a23.27,23.27,0,0,1-.5,4.33,27.44,27.44,0,0,1-1.27,4.26,10,10,0,0,1-.87,1.81c.22-.47,0-.14.18-.53-.23.51-.21.55-.22.65a1,1,0,0,1-.08.25c-.07.14-.18.35-.39.71l0-.26a2.27,2.27,0,0,1-.25.55c-.13.22-.28.44-.43.65l-.26.35-.27.36c-.18.24-.37.48-.53.72s-.12,0,0-.15l.29-.39.37-.51c-.31.4-.46.63-.61.83a5.37,5.37,0,0,1-.55.69c.14-.22.28-.43.4-.66a2.47,2.47,0,0,1-.36.49,4.68,4.68,0,0,1-.38.39l-.39.31a16.32,16.32,0,0,0,2.3-2.81l.42-.69a23.41,23.41,0,0,0,2.32-5.59c.08-.29.15-.59.23-.9.13-.57.25-1.15.35-1.74-.06.4-.11.77-.16,1.09a26.48,26.48,0,0,0,.48-3.07c.07-.42.15-1.07.19-1.13s0,0-.06.05c0-.84,0-1.69,0-2.53,0,.52,0,1-.05,1.54V29.1c0-.31,0-.62,0-.93s0-.68,0-1c0-.67-.07-1.33-.13-2a28.45,28.45,0,0,0-1.12-5.55c-.18-.57-.38-1.13-.59-1.68A22.11,22.11,0,0,0,23,15.61c-.26-.49-.53-.95-.82-1.4s-.6-.87-.91-1.27-.65-.78-1-1.14a12.29,12.29,0,0,0-1.05-1,11.14,11.14,0,0,0-2.6-1.63c.19.07.38.13.57.22a3.15,3.15,0,0,0-.47-.2l-.34-.13L16.14,9c-.41-.17-.37-.19-.15-.14l.43.12.41.16c-.22-.09-.39-.17-.53-.21L16,8.81c-.15,0-.19,0-.19,0l.07.07a8.37,8.37,0,0,0-5-.13l.61-.19a8,8,0,0,1,1.7-.28,7,7,0,0,0-1.45.13l-.58.13-.36.1-.43.14c-.49.15-.82.28-1.14.38a7.6,7.6,0,0,0-1,.43l.43-.16-.94.63a3.6,3.6,0,0,0-.71.58l-.06-.14a6,6,0,0,1-.63.6l-.66.59L5.41,12c-.16.15-.29.3-.42.43l-.33.35a2.68,2.68,0,0,1-.45.44h.13a10.79,10.79,0,0,0-.95,1.37c-.34.56-.6,1-.42.5a9.66,9.66,0,0,1-.42.94l-.12,0c-.33.73-.65,1.55-.78,1.75a2.88,2.88,0,0,0,.18-.7c-.65,1.56-.59,1.77-.57,1.91s.07.24-.32,1.67l0-.05-.12.74-.24.75a7.1,7.1,0,0,1-.12,1.12c-.06.46-.14,1-.21,1.54A18.19,18.19,0,0,0,0,28,24.18,24.18,0,0,0,.06,31l.09-.09a22.17,22.17,0,0,0,.28,3c.18,1.25.47,2.48.51,3,.39.95,0-.11.07-.11.34.93.53,1.43.64,1.83s.19.69.39,1.18c.56,1.1-.36-.87,0-.3a8.6,8.6,0,0,0,.8,1.57c.24.37.49.79,1.12,1.78.09.21-.37-.48-.52-.67a24.1,24.1,0,0,0,2,2.59,12.24,12.24,0,0,0,3.09,2.45,9.72,9.72,0,0,0,2.2.94A9.1,9.1,0,0,0,16.23,48a10.85,10.85,0,0,0,2.42-1.18l0-.06A13.07,13.07,0,0,0,22,43.68c-.17.2-.35.39-.53.58a21.24,21.24,0,0,0,1.49-2.16c.12-.14.25-.27.37-.42a6.87,6.87,0,0,0,.47-1.16,13.75,13.75,0,0,0,.81-1.74c.25-.64.44-1.23.51-1.45s-.06.4-.09.55a9.6,9.6,0,0,0,.31-1.2c.07-.32.15-.67.33-1.41l0,0c.17-.9.35-1.86.46-2.86s.2-2.05.23-3.1A30.63,30.63,0,0,0,26.29,26.11ZM9.12,19.19c.18-.26.37-.53.56-.82s.59-.89.89-1.37c.2-.32.39-.65.58-1l.28-.51c.18-.34.36-.69.52-1s.32-.7.46-1.06A11.7,11.7,0,0,0,13,11.48c-.06.35-.13.65-.18.89a7.44,7.44,0,0,0,.22-.81l0-.08v0s0,0,0,0l.15.06a1.61,1.61,0,0,1,.28.17,2.27,2.27,0,0,1,.49.44,2.39,2.39,0,0,1,.28.49c.08.16.13.28.1.27l-.17-.24a1.88,1.88,0,0,0-.16-.23,1.63,1.63,0,0,0-.17-.2,1,1,0,0,0-.16-.14,1.39,1.39,0,0,0-.31-.23l-.17-.08-.08,0,0,.09c0,.12,0,.23-.08.36l0,.17,0,.09,0,.12c-.1.34-.23.67-.36,1-.26.66-.57,1.32-.93,2a7.25,7.25,0,0,1-.77,1.28c.18-.34,0-.11.14-.4-.4.74.11.16-.55,1.19l0-.22a14.14,14.14,0,0,1-1.25,2c-.11.11-.1,0,0-.12s.27-.42.45-.7a10.44,10.44,0,0,0-.74,1.2c.06-.18.13-.36.19-.55a3.37,3.37,0,0,1-.42.74l-.23.3A9.37,9.37,0,0,1,9.12,19.19Zm-.79,1.32c.05,0,.1,0-.15.51-.15.3-.11.14-.16.2a2.92,2.92,0,0,1-.23.83c-.08.08.06-.34,0-.4Q8.06,21.05,8.33,20.51Zm-.94,2.38c0,.1.12-.21.06.11s-.2.51-.23.48C7.28,23.28,7.33,23.08,7.39,22.89Zm9.3,24.34a2.16,2.16,0,0,1-.62.21c-.06,0-.08,0-.07,0a8.09,8.09,0,0,0,.76-.31s0,0,0,0,.17,0-.08.1Zm2.44-1.51c-.38.28-.21.1-.31.15a2.9,2.9,0,0,1-.9.74c-.07,0,0-.06.13-.14a1.31,1.31,0,0,0,.24-.23l.37-.26a11.69,11.69,0,0,0,.95-.79c.07,0,.09.05-.48.53Zm.18-11.53c.14-.52.27-1.13.4-1.69-.32,1-.3,1.06-.64,2a10.4,10.4,0,0,1-.84,1.44l.22-.26c-.36.94-.33.6-.63,1.33l-.11-.1a3.15,3.15,0,0,1-.7,1c0,.09-.05.18-.07.26a2.58,2.58,0,0,1-1,.72l.1,0-.41.27-.33.19-.17.09c-.09,0,.3.08.22.12l-.19.13a.86.86,0,0,0-.1.16l-.09.27c0,.12-.06.1,0-.2a.91.91,0,0,0,0,.23v.21a4.72,4.72,0,0,1,0,.49l-.1,0c0,.61,0,1.27,0,1.44a1.63,1.63,0,0,0-.12-.53c0,1.27-.1,1.39,0,1.48a.44.44,0,0,1,.13.24c0,.08-.19.2-.16.36l.06.47-.06,0,.1.31v0s0,0-.07,0a.38.38,0,0,1-.1,0l-.16-.07a.47.47,0,0,1-.33,0,8.07,8.07,0,0,1-.79-.19,13.41,13.41,0,0,1-1.5-.54c0-.1,0-.2,0-.31l.06-.18A1,1,0,0,0,12,43v-.21a1.37,1.37,0,0,1,0-.19c0-.14.06-.29.11-.46a5.69,5.69,0,0,0,.21-1.3l-.1.07a1,1,0,0,0,0-.2c0-.1,0-.2,0-.32v-.18s0-.07,0-.09l-.08-.06-.37-.21-.28-.17c-.09,0-.17-.12-.26-.18s-.35-.27-.51-.41a4.72,4.72,0,0,1-1.29-1.65c-.48-.51,0,.07,0,.1-.11-.13-.21-.24-.29-.35a3.11,3.11,0,0,1-.2-.3,2.27,2.27,0,0,1-.23-.47c0-.13-.1-.25-.14-.37s-.08-.27-.14-.44c-.4-.75.24.6,0,.22l-.28-.68C8,35,8,34.89,7.9,34.75a6.32,6.32,0,0,1-.44-1.4c0-.17.14.4.22.55a10.85,10.85,0,0,1-.51-2.24A20.63,20.63,0,0,1,7,28.93a22.38,22.38,0,0,1,.4-3.45A16.87,16.87,0,0,1,8.48,22V21.9l.64-1.31c.12-.22.24-.45.38-.66l.22-.33.26-.35c-.12.14-.26.3-.36.44.37-.65.66-1,1-1.61l.3-.29c.39-.69.11-.34.37-.86A10.7,10.7,0,0,0,12,15.7c.23-.46.42-.88.5-1s-.07.3-.1.41c.37-.86.27-.83.69-1.91h0c0-.12.07-.25.11-.37l.05-.19,0-.05v0l0-.13,0-.11c0-.07.05,0,.08,0l.11.06.11.1.24.3c.32.53.66,1.06.95,1.61l.45.84c.13.28.28.56.4.85s.26.56.37.85.23.57.34.85a.36.36,0,0,1,0-.23c.54,1.46,1,3.09,1.42,4.64s.85,3,1.31,4.2c-.5-1.63-1-4.48-1.65-6.1-.1-.63-.48-1.55-.47-1.83a15.9,15.9,0,0,0-1.09-2.75c-.2-.38-.4-.75-.63-1.16s-.48-.85-.78-1.35c-.17-.3,0-.19-.05-.3.34.53.66,1.07,1,1.63-.16-.35-.33-.7-.51-1l0,0c.07.12.14.23.2.35l.13.23c.06.13.13.26.21.4l.17.33c.24.47.46.95.67,1.46.41,1,.78,2.1,1.09,3.19.08.27.15.55.23.83.69,2.52,1.26,5.16,2,7.57a4.28,4.28,0,0,1,.13.46c0,.17.07.36.11.56s.1.72.12,1.1a3.58,3.58,0,0,0-.09-.45c0,.23.08.45.11.68a.57.57,0,0,0,0,.13c0,.71-.12-.18-.18-.48.07.67.09.8.13.78a.13.13,0,0,0,.05-.07v.26a6.39,6.39,0,0,1-.2,1.79c-.15.52-.34,1.07-.54,1.63Z"/><path id="Tracé_108" data-name="Tracé 108" class="cls-2" d="M25.9,26.31c0-.25-.07-.5-.1-.75l.05.61,0,.62Z"/></g><path id="Tracé_109" data-name="Tracé 109" class="cls-3" d="M13.4,14.09c.47.14.3,0,.5.37.66.55.82,1.86,1.24,2.62,1.65,3,2.12,7.7,3.3,11.1a7.56,7.56,0,0,1,0,3.78,13.79,13.79,0,0,1-2.14,4.39c-.47.56-1.44,2.52-2,3a24.71,24.71,0,0,0-.16,4.55H14c-.31-.2-.81-.19-1.17-.37l-.17-.12c.5-1.16.26-2.6.19-3.94-5.34-2.58-5.84-13.23-3-18.14C10.85,19.6,12.93,16.24,13.4,14.09Z"/><g id="Groupe_137" data-name="Groupe 137"><g id="Groupe_136" data-name="Groupe 136"><path id="Tracé_110" data-name="Tracé 110" class="cls-4" d="M13.21,36l.13-2.29a10,10,0,0,1,0-2.25c-.3-2.63-.45-4.78-.74-7.2-.29-2.21.72-3,.13-5.12.29-.11.29-1.45.58-1.77.29-.1,0-.42.29-.42A36.91,36.91,0,0,0,13.4,25c.29,4.21,1.4,4.84.48,8.73a6.93,6.93,0,0,1-.19,2c-.09.78.28,2.15-.3,2.67C13.1,37.8,13.5,37,13.21,36Z"/></g><path id="Tracé_111" data-name="Tracé 111" class="cls-4" d="M13.34,34.92a5.82,5.82,0,0,1-1.54-1.3c-.2-.27-.66-.49-.93-.81-.73-.15-.51-.32-1.06-.76-.35-.28-.05-.1-.43-.26a2,2,0,0,0-.63-.19,1.7,1.7,0,0,0,.54.62c.42.37.25.33.74.83-.1.07.27.2.17.26,1.16.65,2,1.69,3.28,2.3.07-.12-.39-.52-.14-.61h0Z"/><path id="Tracé_112" data-name="Tracé 112" class="cls-4" d="M17.36,31.27c-.53.72-.22.09-.57.39s-.35.5-.59.77-.17.2-.34.4-.38.41-.64.74-.34.35-.49.55a3.17,3.17,0,0,1-.48.49c-.52.38-.61,1-.88,1.24.42-.42.37.13.79-.3-.13.11.69-.8.73-.7,1.45-1.43,1.93-2.49,3-3.53,0-.25,0-.22,0-.34Z"/><path id="Tracé_113" data-name="Tracé 113" class="cls-4" d="M14,31c.43-.69-.15.36.06.05a5.86,5.86,0,0,0,.66-.57c.14-.18.28-.44.43-.65s.66-.62.91-1,.16-.53.32-.77.12-.05.26-.26c.42-.64.2-.76.53-1.16-.51.6-.29,0-.78.59.11-.11-.9,1.21-1,1.09-.37.43-.66.8-.91,1.13s-.35.45-.5.66c-.4.54-.07.34-.39.89.06.2-.07.12,0,.22Z"/><path id="Tracé_114" data-name="Tracé 114" class="cls-4" d="M8.77,27c.26.24.38-.07.69.14s.91.75,1.22.95a4,4,0,0,1,.57.48c1,.93,1.39,1.26,2.25,2.09-.23-.11-.16.61-.29.41-.3-.07-.51-.3-.83-.37-.23-.29-.8-.89-1.07-1.17-.42-.43-.59-.35-1.05-.77S9.31,27.56,8.77,27Z"/><path id="Tracé_115" data-name="Tracé 115" class="cls-4" d="M16.35,22.35c-.24.28-.39,0-.68.29S14.43,23.79,14.13,24s-.63,1-.91,1.31c-.53.55.09.85.2.72s.74-.95,1.17-1.5c.28-.35.83-.77,1.08-1.1s.53-.91.68-1.1Z"/><path id="Tracé_116" data-name="Tracé 116" class="cls-4" d="M10.23,23.33c.59.62.31.11.6.39s.57.34.84.52a7.28,7.28,0,0,1,1,1.23s.48,1,.17.86a25.23,25.23,0,0,1-2.26-2,7.31,7.31,0,0,1-.83-.84c.05-.18-.06-.29,0-.37Z"/></g></g></g></svg>
