<svg xmlns="http://www.w3.org/2000/svg" xmlns:xlink="http://www.w3.org/1999/xlink" width="185.184" height="85.623" viewBox="0 0 185.184 85.623">
  <defs>
    <clipPath id="clip-path">
      <rect id="Rectangle_53" data-name="Rectangle 53" width="136.014" height="52.198" fill="#fff"/>
    </clipPath>
  </defs>
  <g id="Groupe_424" data-name="Groupe 424" transform="matrix(0.966, 0.259, -0.259, 0.966, 13832.057, -3072.121)">
    <g id="Groupe_421" data-name="Groupe 421" transform="translate(-12536.048 6539.517)">
      <g id="Groupe_420" data-name="Groupe 420" clip-path="url(#clip-path)">
        <path id="Tracé_338" data-name="Tracé 338" d="M11.62,40.515a7.279,7.279,0,0,1,2.29-.347q1.588-.059,3.367-.026t3.313.128q1.536.1,2.074.1h.108l.053.039a42,42,0,0,1,.431,4.466,15.2,15.2,0,0,1-.431,4.474,3.915,3.915,0,0,1-1.67,2.925,8.515,8.515,0,0,1-3.448,1.224q-1.348.118-2.8.157t-2.963-.047a22.568,22.568,0,0,1-2.937-.358,16.351,16.351,0,0,1-2.721-.76A9.863,9.863,0,0,1,3,50.59a7.833,7.833,0,0,1-1.778-2.528,8.768,8.768,0,0,1-.35-1.02,10.866,10.866,0,0,1-.3-1.3Q.413,44.691.306,43.845T.118,42.171Q.037,41.345.01,40.424t.027-2.118Q.09,37.27.2,36.181a14.272,14.272,0,0,1,.377-2.145,7.387,7.387,0,0,1,.943-2.158,5.677,5.677,0,0,1,2.236-1.893,10.269,10.269,0,0,1,2.424-1.1q1.345-.418,2.8-.72a25.179,25.179,0,0,1,5.657-.495,12.614,12.614,0,0,1,4.634.935,6.038,6.038,0,0,1,2.909,2.531,6.2,6.2,0,0,1,.593,4.127q-.027.12-.054.239a.706.706,0,0,1-.485.137c-.252.01-.665.039-1.239.086q-.808.031-1.374.072t-1.132.062q-.565.022-1.158.006t-1.4-.059q-.163-.367-.458-.894a4.174,4.174,0,0,0-.754-.963,4.662,4.662,0,0,0-1.051-.748,2.593,2.593,0,0,0-1.4-.257q-.917.024-1.778.081a2.866,2.866,0,0,0-1.508.521,1.454,1.454,0,0,0-.3.387,3.55,3.55,0,0,0-.3.595,10.2,10.2,0,0,0-.619,2.05,21.237,21.237,0,0,0-.35,2.526,23.142,23.142,0,0,0-.054,2.756q.053,1.422.216,2.712a8.871,8.871,0,0,0,.431,1.69,2.865,2.865,0,0,0,1.347,1.518,5.129,5.129,0,0,0,1.239.4,8.105,8.105,0,0,0,1.7.081,13.629,13.629,0,0,0,1.643-.181,3.18,3.18,0,0,0,1.024-.433,1.749,1.749,0,0,0,.647-.8,5.348,5.348,0,0,0,.243-1.219,4.253,4.253,0,0,0,0-.672c-.019-.2-.081-.314-.189-.343a6.545,6.545,0,0,0-.888-.05l-1.185-.006q-.62,0-1.131-.041a3.744,3.744,0,0,1-.781-.118,8.338,8.338,0,0,1-.135-1.012,6.407,6.407,0,0,1,0-.846c.018-.275.027-.557.027-.845a6.812,6.812,0,0,0-.107-1.08v-.036c0-.023.018-.036.053-.036l.108-.036" transform="translate(0 -14.449)" fill="#fff"/>
        <path id="Tracé_339" data-name="Tracé 339" d="M80.915,53.446l.053.006q-1.886-.208-4.2-.344a44.644,44.644,0,0,1-4.741-.549l-.054-.006c-.36-.746-.808-1.634-1.347-2.658s-1.132-2.087-1.778-3.185-1.347-2.17-2.1-3.214a25.014,25.014,0,0,0-2.263-2.734l-.107-.134a15.706,15.706,0,0,0-.162,2.458q0,1.461.081,3.013t.189,2.961q.107,1.408.162,2.244a9.034,9.034,0,0,1-2.4.128q-1.482-.077-2.936-.219T56.7,50.9a11.6,11.6,0,0,0-1.428-.159q.107.012.162-1.1t.053-2.954V42.459q0-2.388-.027-4.939t-.107-5.058q-.081-2.505-.135-4.6t-.134-3.572a16.181,16.181,0,0,0-.189-1.993q3.016-.658,6.627-1.372a44.07,44.07,0,0,1,7.542-.823,11.285,11.285,0,0,1,5.711.94,9.411,9.411,0,0,1,3.933,3.3,9.031,9.031,0,0,1,1.482,4.82,8.929,8.929,0,0,1-1.59,5.251,8.656,8.656,0,0,1-2.721,2.873A8.184,8.184,0,0,1,71.594,38.5l-.215,0h-.054v.046q1.132,1.713,2.478,3.463t2.64,3.588q1.293,1.835,2.478,3.794a25.808,25.808,0,0,1,1.994,4.055M62.759,27.467c.035.372.063.794.081,1.268s.027.955.027,1.444.009.964.027,1.423a6.369,6.369,0,0,0,.135,1.162h.054q1.239.054,2.693.059a16.321,16.321,0,0,0,2.748-.206,2.584,2.584,0,0,0,1.589-.929,3.175,3.175,0,0,0,.674-1.575,3.387,3.387,0,0,0-.216-1.678,2.511,2.511,0,0,0-1.078-1.275,4.307,4.307,0,0,0-3.017-.623,14.687,14.687,0,0,0-3.717.932" transform="translate(-28.674 -10.481)" fill="#fff"/>
        <path id="Tracé_340" data-name="Tracé 340" d="M139.342,53.033l.054.006q-1.887-.208-4.2-.322a37.573,37.573,0,0,1-4.741-.554l-.053-.006c-.36-.881-.808-1.932-1.347-3.144s-1.131-2.473-1.778-3.777-1.347-2.58-2.1-3.824a29.754,29.754,0,0,0-2.263-3.265l-.107-.161a22.7,22.7,0,0,0-.162,2.958q0,1.757.081,3.623t.188,3.558q.107,1.692.162,2.7a7.616,7.616,0,0,1-2.4.208q-1.483-.059-2.937-.2t-2.613-.316a9.465,9.465,0,0,0-1.428-.159q.107.011.162-1.347t.053-3.6v-5.14q0-2.905-.027-6.01t-.107-6.154q-.081-3.049-.135-5.6t-.134-4.351a24.157,24.157,0,0,0-.189-2.43q3.016-.729,6.627-1.505a36.713,36.713,0,0,1,7.542-.814,9.876,9.876,0,0,1,5.711,1.241,10.376,10.376,0,0,1,3.933,3.982,12.238,12.238,0,0,1,1.481,5.717,11.958,11.958,0,0,1-1.589,6.2,9.809,9.809,0,0,1-2.721,3.4,7.3,7.3,0,0,1-4.283,1.454l-.215,0h-.054v.054q1.131,2.04,2.478,4.113t2.64,4.238q1.293,2.163,2.478,4.462a32.8,32.8,0,0,1,1.993,4.758m-18.156-30.9q.053.673.081,1.528t.027,1.741q0,.885.027,1.715a9.239,9.239,0,0,0,.134,1.4h.054q1.238.071,2.693.086a13.678,13.678,0,0,0,2.748-.233,2.525,2.525,0,0,0,1.589-1.1,4.169,4.169,0,0,0,.674-1.876,4.783,4.783,0,0,0-.216-2,2.972,2.972,0,0,0-1.078-1.536,3.79,3.79,0,0,0-3.017-.787,12.482,12.482,0,0,0-3.717,1.069" transform="translate(-59.194 -6.992)" fill="#fff"/>
        <path id="Tracé_341" data-name="Tracé 341" d="M197.769,52.616l.054.006c-1.258-.139-2.659-.236-4.2-.3a32.5,32.5,0,0,1-4.742-.558l-.053-.006q-.539-1.525-1.347-3.631t-1.778-4.37q-.97-2.265-2.1-4.434a35.6,35.6,0,0,0-2.263-3.8l-.107-.187a30.953,30.953,0,0,0-.162,3.457q0,2.053.081,4.233t.188,4.155q.107,1.974.162,3.146a6.606,6.606,0,0,1-2.4.288c-.988-.028-1.967-.088-2.937-.175s-1.841-.2-2.613-.32a8.12,8.12,0,0,0-1.428-.159q.107.012.162-1.59t.053-4.237V38.083q0-3.422-.027-7.08t-.108-7.251q-.08-3.593-.134-6.6t-.135-5.128q-.081-2.122-.189-2.869,3.016-.8,6.626-1.637a31.455,31.455,0,0,1,7.543-.805,8.919,8.919,0,0,1,5.711,1.541,11.668,11.668,0,0,1,3.933,4.663,15.977,15.977,0,0,1,1.481,6.615,15.482,15.482,0,0,1-1.589,7.153,11.256,11.256,0,0,1-2.721,3.934,6.72,6.72,0,0,1-4.283,1.694l-.215,0h-.054v.064q1.132,2.367,2.478,4.763t2.64,4.889q1.293,2.489,2.478,5.129a40.937,40.937,0,0,1,1.993,5.461M179.613,16.8q.053.788.081,1.79t.027,2.037q0,1.035.027,2.007a12.616,12.616,0,0,0,.134,1.639h.054q1.238.09,2.693.113a11.811,11.811,0,0,0,2.748-.259,2.549,2.549,0,0,0,1.589-1.274,5.346,5.346,0,0,0,.674-2.177,6.428,6.428,0,0,0-.216-2.332,3.553,3.553,0,0,0-1.078-1.8,3.451,3.451,0,0,0-3.017-.95,11,11,0,0,0-3.717,1.206" transform="translate(-89.715 -3.499)" fill="#fff"/>
        <path id="Tracé_342" data-name="Tracé 342" d="M256.195,52.193l.054.006q-1.887-.208-4.2-.278a28.587,28.587,0,0,1-4.741-.563l-.053-.006q-.539-1.727-1.347-4.117t-1.778-4.963q-.97-2.574-2.1-5.045a42.325,42.325,0,0,0-2.263-4.326l-.107-.214q-.162,1.61-.162,3.957t.081,4.843q.08,2.5.188,4.752t.162,3.6a5.88,5.88,0,0,1-2.4.367c-.989-.016-1.966-.069-2.937-.153s-1.841-.194-2.613-.325a7.026,7.026,0,0,0-1.428-.159,5.93,5.93,0,0,0,.162-1.834q.053-1.846.054-4.878V35.887q0-3.94-.027-8.149t-.108-8.347q-.08-4.137-.134-7.6t-.135-5.907q-.082-2.445-.189-3.306,3.017-.87,6.626-1.77a27.555,27.555,0,0,1,7.543-.8,8.255,8.255,0,0,1,5.711,1.842A13.251,13.251,0,0,1,253.986,7.2a20.282,20.282,0,0,1,1.481,7.513,19.5,19.5,0,0,1-1.589,8.1,12.959,12.959,0,0,1-2.721,4.465,6.33,6.33,0,0,1-4.283,1.933l-.215,0H246.6v.072q1.132,2.695,2.478,5.413t2.64,5.539q1.293,2.816,2.478,5.8a50.172,50.172,0,0,1,1.993,6.164M238.039,11.464q.053.9.081,2.05t.027,2.333q0,1.185.027,2.3a16.628,16.628,0,0,0,.134,1.878h.054q1.238.107,2.693.139a10.389,10.389,0,0,0,2.748-.286,2.628,2.628,0,0,0,1.589-1.447,6.7,6.7,0,0,0,.674-2.477,8.314,8.314,0,0,0-.216-2.659,4.222,4.222,0,0,0-1.078-2.058,3.222,3.222,0,0,0-3.017-1.114,9.937,9.937,0,0,0-3.717,1.343" transform="translate(-120.234 0)" fill="#fff"/>
      </g>
    </g>
    <g id="Groupe_422" data-name="Groupe 422" transform="matrix(-0.5, -0.866, 0.866, -0.5, -12546.267, 6601.83)">
      <path id="Tracé_26" data-name="Tracé 26" d="M.721,9.889a1.29,1.29,0,0,1-.44-.5C.2,9.2.223,8.236.164,8.028A27.072,27.072,0,0,1,.116,2.473C.163,1.5.118.4.369.3A6.339,6.339,0,0,1,1.2.024,4.268,4.268,0,0,1,3.794.767l-.017.394.138.481.044.682-.176,4.1-.124.465-.035.738A5.667,5.667,0,0,1,2.952,9.9l-.376-.007L2.329,9.88Z" transform="translate(13.874 0)" fill="#fff"/>
      <path id="Tracé_27" data-name="Tracé 27" d="M6.52,8.771l-.2.169-1.223.606c-.154.107-.982-.724-1.655-1.553L3.055,7.37l-.328-.326L.611,3.57.32,2.943.2,2.431,0,2.1C-.035,1.8,1.336.362,2.03.013c.209-.1.437.442.8.324.255-.082.75.92,1.255,1.738A20.387,20.387,0,0,1,6.412,6.469c.051.219.53,1.052.556,1.268a1.655,1.655,0,0,1-.127.725Z" transform="translate(0 4.86)" fill="#fff"/>
      <path id="Tracé_28" data-name="Tracé 28" d="M.085,9.234a1.557,1.557,0,0,1-.066-.717c.045-.219.6-1.1.667-1.323a25.46,25.46,0,0,1,2.708-4.62C3.971,1.708,4.554.658,4.8.717c.359.085.648-.8.849-.711A4.939,4.939,0,0,1,7.5,2.227l-.233.354-.16.524-.346.656L4.336,7.439,3.979,7.8l-.439.661c-.747.892-1.649,1.8-1.795,1.708l-1.176-.5L.381,9.514Z" transform="translate(23.124 3.467)" fill="#fff"/>
    </g>
    <g id="Groupe_423" data-name="Groupe 423" transform="translate(-12393.97 6522.612) rotate(45)">
      <path id="Tracé_26-2" data-name="Tracé 26" d="M.722,9.682A1.258,1.258,0,0,1,.271,9.2C.193,9.013.218,8.069.159,7.867A25.124,25.124,0,0,1,.141,2.432C.195,1.483.154.4.413.3A6.873,6.873,0,0,1,1.274.026,4.524,4.524,0,0,1,3.944.731l-.02.386.139.469.042.667L3.9,6.262l-.131.456-.041.723a5.415,5.415,0,0,1-.706,2.23l-.388,0L2.381,9.66Z" transform="translate(14.316 0)" fill="#fff"/>
      <path id="Tracé_27-2" data-name="Tracé 27" d="M6.687,8.545l-.209.167-1.265.6c-.16.106-1.008-.7-1.7-1.505L3.121,7.2l-.336-.317L.622,3.505l-.3-.611L.209,2.4,0,2.069C-.035,1.782,1.388.36,2.106.014c.217-.1.448.429.828.311.264-.082.768.894,1.285,1.69A19.263,19.263,0,0,1,6.589,6.293c.051.214.541,1.025.566,1.236a1.556,1.556,0,0,1-.136.711Z" transform="translate(0 4.868)" fill="#fff"/>
      <path id="Tracé_28-2" data-name="Tracé 28" d="M.084,9.083a1.444,1.444,0,0,1-.064-.7c.048-.215.623-1.079.7-1.3A25.1,25.1,0,0,1,3.535,2.538C4.136,1.685,4.743.653,5,.708c.37.08.673-.786.879-.7A4.8,4.8,0,0,1,7.77,2.163l-.242.349-.168.514L7,3.67,4.48,7.29l-.371.353-.457.651c-.776.879-1.711,1.776-1.861,1.686L.581,9.5.388,9.354Z" transform="translate(23.823 3.279)" fill="#fff"/>
    </g>
  </g>
</svg>
