<svg xmlns="http://www.w3.org/2000/svg" width="110" height="47" viewBox="0 0 193.45 54.41" preserveAspectRatio="none">
  <path fill="#FFFFFF" d="M138.17,52.42v-.34c-3.34.1-6.91.11-10.4,0L123.1,52a49.49,49.49,0,0,0-12.52.13l-6.48-.12c-2.32.35-4.9.17-7.4.56l-7.56,1L81.9,53.5a76.72,76.72,0,0,1-12.22.24c-7.24-.15-13.15,0-19.91.34l-7.39.33A10.2,10.2,0,0,1,41,53.82H34.85a30,30,0,0,0-7,.45,33.89,33.89,0,0,1-8.59-.49l-1,.1c-2.3.11-4.18-.14-4.2-1.79-2.88,0-8.62.38-9.78-1-.39-.39-.21-.71-.13-1.27a6.93,6.93,0,0,1-2.26-.26c-.58-.8-.34-.8-.12-1.61l-.15-.11c-.42-.29-.8-.53-1.19-.82,0-.9.47-1.85.34-2.52C.54,43.35-.31,40.11.12,38.68a7.92,7.92,0,0,0,.37-3.77c-.83-3.17.06-7.21.92-9.94,0-1-.06-1.91-.1-2.87a23.79,23.79,0,0,1,.57-6.29l0-2.17a14.3,14.3,0,0,1,.5-2.51C2.78,10.42,4,10.39,4.24,10l0-2.64c-1.15-1.12,1.12-3.23,2-3.51.64-.2,1.83.26,2,.15s.24-.58.47-.79.68-.27.91-.45A100.07,100.07,0,0,0,21.87,2c2.41-.4,4.88-.23,7.1-.57l3-.06C35.3.84,39,1,42.25.49l10,.17,4.53,0c2-.33,5.42-.95,8.3-.43,2.61.48,5.6.21,8.59.27L78.9.56a42.14,42.14,0,0,1,5.73,0l8,0,4.07.07a44.1,44.1,0,0,1,6.19,0l10.85.08c2.67,0,5.85,0,8.75,0,1.27,0,2,.45,3.16.28,1.66-.24,4,.26,5.88,0A71.17,71.17,0,0,1,140.87,1l15.84.17a54.71,54.71,0,0,1,7.68.24L168,1.31c2.11.39,5.26.2,7.38.59l3,.17a49.3,49.3,0,0,1,6,1.13,14.76,14.76,0,0,1,2.39,1.42c.58.32,1.09.38,1.49.82a3.87,3.87,0,0,1,2.26,0,12.47,12.47,0,0,1,2,4l0,2.17a11.74,11.74,0,0,0,.4,3.44l0,1.26c.15.54.77,1.56.42,2.3l-.92.67-.06,4c.53,2-.55,4.7,0,6.87a20.85,20.85,0,0,1,.06,4.93c0,2.63.24,5.74-.44,8a7.79,7.79,0,0,0,.09,3.33,3.52,3.52,0,0,1-.49,2.28,3.62,3.62,0,0,1-2,.42,3.49,3.49,0,0,0-1.19-.59c-.28,1.26-1.42.74-2,1.34s0,.63-.78,1c-1.46.8-3.9.38-6,.7a65.63,65.63,0,0,1-9.51.18C158.85,51.64,148.33,51.69,138.17,52.42Z"></path>
</svg>
