<svg xmlns="http://www.w3.org/2000/svg" width="110" height="47" viewBox="0 0 110.48 47.27">
  <defs>
    <style>
      .cls-1,
      .cls-4 {
        fill: #7ca52b;
      }
      .cls-2 {
        fill: #050608;
      }
      .cls-3 {
        fill: #040507;
      }
      .cls-4 {
        fill-rule: evenodd;
      }
      .cls-5 {
        fill: #fff;
      }
    </style>
  </defs>
  <g id="Calque_2" data-name="Calque 2">
    <g id="Calque_1-2" data-name="Calque 1">
      <g id="Groupe_26" data-name="Groupe 26"><path
        id="Tracé_26"
        data-name="Tracé 26"
        class="cls-1"
        d="M97.3,7.09A1,1,0,0,1,97,6.71c-.07-.13-.08-.83-.14-1a19.11,19.11,0,0,1-.21-4c0-.7-.07-1.5.12-1.56A4.37,4.37,0,0,1,97.35,0a3.56,3.56,0,0,1,2,.62V.9l.12.36.06.49V4.69L99.42,5v.53c-.1.78-.3,1.62-.43,1.62l-.29,0h-.18Z"/><path
        id="Tracé_27"
        data-name="Tracé 27"
        class="cls-1"
        d="M91.34,9.52l-.15.12-.9.4c-.11.07-.76-.55-1.3-1.17l-.3-.46-.26-.25L86.72,5.59l-.24-.46-.1-.38-.16-.24c0-.22,1-1.21,1.46-1.44.16-.07.35.33.62.26s.59.69,1,1.29a16.5,16.5,0,0,1,1.89,3.25c0,.16.43.77.46.93a1.17,1.17,0,0,1-.07.52Z"/><path
        id="Tracé_28"
        data-name="Tracé 28"
        class="cls-1"
        d="M103.88,9.39a1.11,1.11,0,0,1-.07-.51c0-.16.41-.78.46-.94a16.42,16.42,0,0,1,1.89-3.24c.41-.6.81-1.34,1-1.29s.46-.55.61-.49a4.13,4.13,0,0,1,1.47,1.66l-.17.25-.1.37-.24.47L107,8.24l-.26.24-.31.47c-.53.61-1.18,1.24-1.3,1.17l-.9-.4-.14-.12Z"/><path id="Tracé_29" data-name="Tracé 29" class="cls-2" d="M38.43,46.14l-.3-.08-.2-.06c-.1,0-.15,0-.16,0a1.14,1.14,0,0,0,.35.17C38.19,46.14,38.84,46.26,38.43,46.14Z"/><path id="Tracé_30" data-name="Tracé 30" class="cls-2" d="M43.76,15.22l0,.06,0,.05h0l.06,0,.08-.38-.08.2Z"/><path id="Tracé_31" data-name="Tracé 31" class="cls-2" d="M24.24,27.08h0Z"/><path
        id="Tracé_32"
        data-name="Tracé 32"
        class="cls-2"
        d="M43.57,42.12c0-.44,0-.77,0-1.07v-.24c0-.09,0-.2,0-.27a1.84,1.84,0,0,0-.17-.22l-.13-.19a.25.25,0,0,0-.06-.15.34.34,0,0,0-.12-.12.85.85,0,0,0-.38-.09.9.9,0,0,1,.32.09.31.31,0,0,1,.19.24.33.33,0,0,0-.23-.2.9.9,0,0,0-.28,0H42.3a1.7,1.7,0,0,1-.39,0c-.21,0-.36-.05-.94-.16l.08-.13a1.7,1.7,0,0,1-.28,0l-.14,0v0h-.29a3.82,3.82,0,0,1-1.16-.2H38.8a4.71,4.71,0,0,1-1-.51,1.83,1.83,0,0,1-.5-.42l0,.13c-.06-.06-.28-.21-.53-.42a9,9,0,0,1-.8-.71c-.49-.5-.8-.93-.39-.57a4.59,4.59,0,0,1-.73-.8l0-.13a7.19,7.19,0,0,1-1.06-1.71,2.47,2.47,0,0,0,.45.61c-.44-.76-.65-1.2-.8-1.45a1,1,0,0,0-.26-.35.7.7,0,0,1-.24-.3,7.24,7.24,0,0,1-.53-1.36l.07,0c-.1-.25-.19-.5-.28-.76s-.08-.56-.12-.84a9.77,9.77,0,0,1-.44-2.88c0-.61,0-1.25,0-1.85s.08-1.16.14-1.64a4.1,4.1,0,0,1,.11-.61c0-.22.11-.45.19-.7.14-.5.33-1.08.58-1.75l-.12.06.24-.52c.1-.21.22-.45.35-.7a11.94,11.94,0,0,1,1-1.61,7.85,7.85,0,0,1,1.32-1.32,3.94,3.94,0,0,1,1.07-.62c.85-.53-.1,0-.12,0A4.25,4.25,0,0,1,37.56,15a1.8,1.8,0,0,1,.4-.1,1.12,1.12,0,0,1,.32,0,4.59,4.59,0,0,1,1.17.09l.37,0a1.53,1.53,0,0,0-.29-.07c-.29-.06-.65-.08-.33-.1a5.82,5.82,0,0,1,1,.2,5.55,5.55,0,0,1,.65.21l.33.13.05,0,.08,0,.17.08h.66l.09,0,.25.1a.66.66,0,0,0,.44,0,.56.56,0,0,0,.15-.1l.08-.09,0,0,0,.06,0,0,0,0a.6.6,0,0,1-.48.13l-.12,0-.07,0-.17-.07-.09,0h0l0,0,.14,0,0,0,.07,0h.28l.11,0a.54.54,0,0,0,.2-.1l.12-.12,0,0h0l0,0,0,0a.33.33,0,0,1,0-.06h0a.47.47,0,0,1,0,.1l0-.11,0,0h0l.08-.2c0-.05.05-.1.08-.14v0h0l0,0h0v0h0l0,.09s0,.1-.07.18l0,0,0-.07a1,1,0,0,1,.07-.15v0l0-.08.79-1.73,1-2,.07-.41,0-.11v0l0-.1a1.37,1.37,0,0,0,.08-.35.77.77,0,0,0,0-.15.75.75,0,0,0-.05-.16.86.86,0,0,0-.15-.22A1.18,1.18,0,0,0,45,9.5l-.15-.1-.06-.05,0,0-.06,0-.16-.08L44.17,9l-.62-.3a12.62,12.62,0,0,0-2.46-.87,11.3,11.3,0,0,0-3-.31A13.51,13.51,0,0,0,32.37,9l0,.06a10.26,10.26,0,0,0-2.05,1.26,18.81,18.81,0,0,0-1.93,1.75c.22-.2.43-.41.65-.59-.2.2-.37.41-.54.58l-.46.52c-.14.17-.29.34-.43.53s-.3.38-.45.61l-.43.45a7.32,7.32,0,0,0-.61,1.26c-.15.23-.31.54-.48.87-.09.17-.16.35-.24.53s-.16.36-.23.54c-.14.36-.27.7-.36,1s-.16.51-.2.63,0,.06,0-.12.11-.4.12-.49l-.13.44-.08.35c-.05.21-.08.38-.12.56-.05.36-.14.76-.3,1.61l0,0a24.79,24.79,0,0,0,1.93,13.49,1,1,0,0,1-.09-.34,24.07,24.07,0,0,0,3.84,6.28,16.57,16.57,0,0,0,5.12,4.14A16.51,16.51,0,0,1,31.12,42a31.16,31.16,0,0,1-3-3.67c-.23-.42-.56-.94-.82-1.41a5.73,5.73,0,0,1-.52-1.09,32.56,32.56,0,0,1-1.64-4.13,21.19,21.19,0,0,1-.92-4.25,1,1,0,0,1,0-.34h0a19.92,19.92,0,0,1,0-4.88c.06-.39.11-.79.19-1.19s.17-.79.27-1.19a21.45,21.45,0,0,1,.78-2.43,10.76,10.76,0,0,1,1-2c-.27.52,0,.15-.23.58a2.29,2.29,0,0,0,.28-.71,3.29,3.29,0,0,1,.59-1v.28A5.1,5.1,0,0,1,28,13.26c.2-.24.43-.48.65-.73s.45-.5.67-.73.14-.06,0,.14c.2-.22.4-.42.62-.62-.19.22-.36.46-.53.68a4.61,4.61,0,0,1,1.4-1.2,17.24,17.24,0,0,0-6.42,13c0-.53.05-1,.08-1.43a21.18,21.18,0,0,0-.16,3.47c0,.48,0,1.2,0,1.28s0,0,0-.06a23.86,23.86,0,0,0,.46,2.79c-.11-.57-.19-1.14-.26-1.7v0c1.3,9.59,8.33,17.92,15.61,18.33h-.24l-.39,0c.19,0,.37,0,.56,0h.7c.47,0,.43.05.19.08s-.65,0-1,0c1,0,1.23-.05,1.19-.08l-.11,0a12.07,12.07,0,0,0,1.59-.17h0c.48-.36.92-.59,1-1h0v0l.14,0v0c.08,0,.07,0,0,0C43.72,43.74,43.66,43.57,43.57,42.12Zm0-27.73h0l-.05,0h0v0h0Zm-9.07-5.7a3.25,3.25,0,0,1,.7-.17c.07,0,.09,0,.08,0l-.87.27c.09-.06-.34.06.09-.12Zm-2.87,1.37c.45-.26.24-.09.36-.14a3.87,3.87,0,0,1,1.09-.69c.07,0,0,.06-.17.15a1.37,1.37,0,0,0-.29.2,13.26,13.26,0,0,0-1.6,1c-.06,0-.08-.06.61-.51ZM44.09,45.17l-.15-2.5c.08.78.2,1.66.28,2.49Z"/><path id="Tracé_33" data-name="Tracé 33" class="cls-2" d="M29.26,11.91h0Z"/><path id="Tracé_34" data-name="Tracé 34" class="cls-2" d="M43.85,14.93Z"/><path id="Tracé_35" data-name="Tracé 35" class="cls-2" d="M43.76,15.22l0,.11h0s0-.08,0-.09Z"/><path id="Tracé_36" data-name="Tracé 36" class="cls-2" d="M43.86,14.93h0v0h0Z"/><path id="Tracé_37" data-name="Tracé 37" class="cls-2" d="M29.25,11.92c-.19.21-.5.55-.82.92C28.85,12.39,29.05,12.14,29.25,11.92Z"/><path id="Tracé_38" data-name="Tracé 38" class="cls-2" d="M25.35,32.05c-.13-.44-.27-.88-.37-1.32,0,.17.06.35.1.52Z"/><path id="Tracé_39" data-name="Tracé 39" class="cls-2" d="M56.51,46.22c-1-.22-.72-.1-.31,0C56.27,46.24,56.93,46.32,56.51,46.22Z"/><path
        id="Tracé_40"
        data-name="Tracé 40"
        class="cls-2"
        d="M63.91,9.83a.73.73,0,0,0-.26-.29l-.16-.11-.13-.09a1,1,0,0,0-.17-.1l-.28-.16c-.2-.1-.39-.2-.58-.28a12.55,12.55,0,0,0-2.46-.92,11.37,11.37,0,0,0-3-.36A10.62,10.62,0,0,0,53.84,8a12.44,12.44,0,0,0-2.7,1.23l0,.06a13.09,13.09,0,0,0-2,1.44c-.63.59-1.24,1.22-1.81,1.87.21-.21.4-.42.62-.63-.37.46-.67.8-.94,1.17-.14.17-.27.35-.41.54s-.28.39-.43.62l-.41.47a3.89,3.89,0,0,0-.38.73,2.7,2.7,0,0,1-.22.53,9.19,9.19,0,0,0-.48.87l-.26.52-.23.54c-.3.7-.53,1.37-.62,1.61s.09-.44.13-.61c-.12.33-.18.57-.24.78s-.1.37-.14.55-.09.37-.16.62l-.24,1,0,0a26.42,26.42,0,0,0-.57,6.75,20.93,20.93,0,0,0,1.53,6.93,1.06,1.06,0,0,1-.09-.35,19.42,19.42,0,0,0,1.66,3.32,17.78,17.78,0,0,0,2.31,3,15.36,15.36,0,0,0,5.5,3.7,16.59,16.59,0,0,1-1.95-1,17.68,17.68,0,0,1-2-1.53A24,24,0,0,1,46,39.14c-.12-.21-.26-.44-.42-.68l-.43-.73a5.58,5.58,0,0,1-.51-1.11,23.43,23.43,0,0,1-.92-2.27c-.23-.68-.42-1.31-.57-1.94a18.67,18.67,0,0,1-.59-4.34c0-.26,0-.32,0-.34h0a20.63,20.63,0,0,1,.41-4.9,25.55,25.55,0,0,1,1.5-4.76c.17-.41.4-.89.6-1.27a5.89,5.89,0,0,1,.44-.73c-.26.52,0,.15-.23.58a1.87,1.87,0,0,0,.28-.72,4.25,4.25,0,0,1,.58-1v.28a15,15,0,0,1,2.08-2.85c.19-.15.13-.07,0,.15s-.48.58-.78,1c.73-.87.74-1,1.37-1.65l-.49.71a5,5,0,0,1,1.3-1.26A21.91,21.91,0,0,0,43,24.2c0-.45.11-.87.17-1.24a22.57,22.57,0,0,0-.45,3.47c-.06.48-.08,1.21-.12,1.29s0,0,.05-.06a22.5,22.5,0,0,0,.23,2.84c-.07-.58-.1-1.15-.12-1.73v0a.66.66,0,0,0,0,.14c.57,10.34,8.13,17.21,15.88,17.53H58l.57,0h.72c.47,0,.42.05.18.08s-.74,0-1,0c1,0,1.23,0,1.2-.08l-.11,0a12,12,0,0,0,1.6-.17h0c.49-.36.93-.59,1-1h0v0l.14,0v0c.08,0,.07,0,0,0-.06-1.43-.12-1.6-.21-3.06,0-.56,0-1,0-1.31v-.15l0-.17,0-.34c0-.12,0-.24,0-.37a.84.84,0,0,0-.07-.19.29.29,0,0,0-.18-.11.27.27,0,0,1,.12.06.39.39,0,0,1,.08.14,1.63,1.63,0,0,1,0,.31A1.47,1.47,0,0,0,62,39.7a.27.27,0,0,0-.08-.1.27.27,0,0,0-.12,0,3,3,0,0,0-.42,0h-.46a1.22,1.22,0,0,0-.38,0l-.26.06-.14,0-.23,0,0-.14-.4.1-.23,0s0,0-.05,0l-.07,0L59,39.66l-.51-.2a1.7,1.7,0,0,0-.4-.13l-.37.08a2.86,2.86,0,0,1-1.58-.68l0,.12c-.07-.05-.29-.19-.55-.38a5.82,5.82,0,0,1-.78-.71c-.48-.51-.79-1-.38-.58a7.4,7.4,0,0,1-.76-.83l0-.13a7.81,7.81,0,0,1-1.12-1.68,2.49,2.49,0,0,0,.48.6c-.47-.75-.7-1.19-.85-1.43a1.12,1.12,0,0,0-.29-.36.76.76,0,0,1-.24-.29,4.09,4.09,0,0,1-.23-.47l-.16-.38-.18-.5.07,0c-.11-.25-.2-.5-.3-.76s-.1-.56-.14-.85a9.73,9.73,0,0,1-.5-2.88,25.83,25.83,0,0,1,.09-3.52,17.23,17.23,0,0,1,.81-3.1l-.11.06a13.33,13.33,0,0,1,1.57-2.9,8,8,0,0,1,1.28-1.39,4.46,4.46,0,0,1,1-.67c.83-.58-.1,0-.12,0a3.67,3.67,0,0,1,1.75-.76,5.26,5.26,0,0,1,1.19,0,2.17,2.17,0,0,0,.36,0l-.29-.05c-.29-.05-.66,0-.34-.08a6,6,0,0,1,1,.15,6.83,6.83,0,0,1,.66.18l.33.12.19.08,0,0,0,0,0,0,.19.1h.66l0,0,.09,0,.12.06h0l.05,0h.06l.1,0h.06l.09,0a.58.58,0,0,0,.37-.24l0,0,0,0a.27.27,0,0,1-.07.08.62.62,0,0,1-.53.17l-.08,0h0l-.08,0-.21-.08a0,0,0,0,0-.06,0h0l.14.05a1.43,1.43,0,0,0,.27.09h.18a.62.62,0,0,0,.27-.09l.12-.09.06-.08h0l.06-.09.06-.18.13-.29.8-1.74.94-2,.07-.39,0-.12s0,0,0,0v0l0-.11,0-.06,0-.09s0-.06,0-.1v-.12A.74.74,0,0,0,63.91,9.83Zm-2.16,4.54h0l-.07,0v0h.07ZM53.28,8.82l.45-.15L54,8.61c.07,0,.09,0,.08,0-.28.09-.56.2-.84.32,0,0-.31.09.07-.11ZM49.92,11s.11-.18.6-.54.23-.11.34-.17a1.66,1.66,0,0,1,.27-.26l.32-.24.45-.28c.14,0-.39.31-.44.39A13.83,13.83,0,0,0,49.94,11s0,0,0,0ZM62.23,45.22Zm.13-.06h-.14l-.15-2.51c.09.79.2,1.68.29,2.52Zm-.51-29.84a.41.41,0,0,1-.05.09v0l.1-.21a.39.39,0,0,0,0,.09Z"/><path id="Tracé_41" data-name="Tracé 41" class="cls-2" d="M42.18,27.72h0Z"/><path id="Tracé_42" data-name="Tracé 42" class="cls-2" d="M42.69,32c.07.28.14.55.22.83-.06-.23-.1-.45-.15-.68s-.1-.45-.13-.68C42.65,31.62,42.66,31.8,42.69,32Z"/><path id="Tracé_43" data-name="Tracé 43" class="cls-2" d="M11.87,29.89s-.16.08-.06.1S12,29.91,11.87,29.89Z"/><path id="Tracé_44" data-name="Tracé 44" class="cls-2" d="M15,28.35v.12l.08.19Z"/><path id="Tracé_45" data-name="Tracé 45" class="cls-2" d="M18.51,13.9c-.05-.06-.24-.76-.16-.3C18.59,14.68,18.59,14.36,18.51,13.9Z"/><path id="Tracé_46" data-name="Tracé 46" class="cls-2" d="M20,46h0l0,0h0Z"/><path id="Tracé_47" data-name="Tracé 47" class="cls-2" d="M20,46h0Z"/><path id="Tracé_48" data-name="Tracé 48" class="cls-2" d="M19.05,45.94l-.12-.1v0l0,.1Z"/><path id="Tracé_49" data-name="Tracé 49" class="cls-2" d="M18.88,45.8h0V46h0Z"/><path id="Tracé_50" data-name="Tracé 50" class="cls-2" d="M19.09,45.93h0l-.18-.15v0l.14.12Z"/><path id="Tracé_51" data-name="Tracé 51" class="cls-2" d="M26.07,46.71l-.17.12.12,0,0-.07Z"/><path
        id="Tracé_52"
        data-name="Tracé 52"
        class="cls-2"
        d="M26,45.46l-.21-.84-.43-1.75-.88-3.68c-.6-2.5-1.2-5.07-1.79-7.46a1,1,0,0,1,0,.38C21.5,27.05,20.15,21.2,19,17.24c.65,2.74,1.57,7.41,2.37,10.17.18,1,.63,2.61.64,3.06.87,4,1.41,5.58,2.29,9.4a1.11,1.11,0,0,1,0,.38h0c.31,1.17.59,2.28.85,3.37l.38,1.63.1.43a.61.61,0,0,1,0,.13s0,.1,0,.14a1.43,1.43,0,0,1-.09.27,1.13,1.13,0,0,1-.72.58l0,0h-.13c-1.26,0-2.56,0-3.94,0h-1.3v0a.85.85,0,0,1-.39-.17,1.3,1.3,0,0,1-.28-.34h.05l-.1-.08c0-.1-.07-.2-.1-.3h0v0s0-.07,0-.11v0h0c0,.06,0,.11,0,.16h0a.28.28,0,0,0,.09.17s0,0,.2.28a1.6,1.6,0,0,1-.23-.4s0,0,0,0h0s0-.08,0-.11v0h0l0,0c-.11-.3-.11,0-.42-1.43l.2.21c-.33-.73-.5-2.38-.9-3.74,0-.51.19.4.43,1.46-.25-1.21-.36-1.3-.57-2.27l.33.89a8.85,8.85,0,0,1-.41-2l1.52,6.81h0a.06.06,0,0,0,0,0s0,0,0,0v0a1.66,1.66,0,0,0,.1.29.76.76,0,0,0,.65.46h5.09v0a.86.86,0,0,0,.74-.79l-.42-1.85c.13.54.26,1,.38,1.44-.23-1.09-.56-2.44-.85-3.73-.09-.53-.25-1.31-.24-1.4s0,0,0,.08l-.74-3L24,39.16l0-.06L17.55,11.24l.22.72-.3-1.07-.06-.27c-.2-1.12.19.3.32.79-.38-1.55-.38-1.3-.4-1.13l-.13-.56c0-.21-.05-.39-.07-.53s0-.13,0-.19,0-.06,0-.08a.48.48,0,0,0-.53-.41h-.23a5.3,5.3,0,0,1-1-.14l-2.87,0,2.86-.17c-1.66,0-1.82,0-3.46.06-.61,0-1,0-1.43-.07l-.61-.06a2.26,2.26,0,0,0-.37,0,1,1,0,0,0-.49.14,1.14,1.14,0,0,1,.36-.1,1.22,1.22,0,0,1,.33,0A1.23,1.23,0,0,0,9,8.37a.9.9,0,0,0-.29.38,4.42,4.42,0,0,0-.15.48c-.06.25-.08.44-.19,1.09l-.13-.09a13,13,0,0,1-.48,2v.44a15,15,0,0,1-.61,2l.11-.09c-.14.38-.87,3.94-.75,2.69a9.88,9.88,0,0,1-.22,1.23l-.11.08a21.54,21.54,0,0,1-.51,2.25A4.14,4.14,0,0,0,5.72,20c-.9,4,.1.9-.68,4.4l0-.05-.14.9-.28.92c-.09,1.3-1.12,4.92-1.5,7.06-.17.83-.53,1.9-.87,3.49l.11-.09c-.38,1.26-1.5,6-2,7.15-.2,1.21,0-.12.11-.08-.11.59-.2,1-.29,1.4L0,45.6v.16l0,.17a1.93,1.93,0,0,0,0,.34.8.8,0,0,0,.27.52,1.22,1.22,0,0,0,.52.29l.15.05.13,0,.17,0h.12l.42,0c1.48,0-1.13,0-.33-.1,2.26.08,1.84-.1,4.64,0,.27,0-.73,0-1,.06.34,0,.74,0,1.18,0h.06l0,0,0,0,0,0,0,0,.13,0,.11,0h.14a.71.71,0,0,0,.31-.13l.08-.09A.16.16,0,0,0,7.32,47a.62.62,0,0,0,.1-.22h0v0c.39-1.92.94-4.39,1.38-6.47l.85-3.71h1.4l1.9,0,1.88,0h1.27a0,0,0,0,1,0,0h0c.27,1.59.73,3.3,1.11,5.16l-.16-.91c.33,1.2.45,1.88.73,3l.05.66a9.82,9.82,0,0,0,.4,1.27l.06.19a1.54,1.54,0,0,0,.05.17l0,.13h0a1.65,1.65,0,0,0,.22.36,1.26,1.26,0,0,0,.4.33l.19.08,0,.06h.35c1.2,0,2.65,0,3.06,0s-.48.05-.66.08c1.32,0,1.39-.1,2.69-.12H25l.06-.1a1.21,1.21,0,0,0,.46-.28h.06A1.32,1.32,0,0,0,26,46.1a1.15,1.15,0,0,0,.06-.37c0-.06,0-.12,0-.18ZM15.27,29.73l-4,.32.15-.06-.23.07h-.06c-.24,0,.06-.12.17-.15-.34.05-.28.1-.24.16l-.57,0a6.13,6.13,0,0,0,.13-.67,2.63,2.63,0,0,1,.33-.51l-.11.09c0-.36.1-.23.07-.52l.14.05c-.05-.11.06-.34.12-.43L11.14,28c.1-.2.15-.33.26-.38h-.1c.08-.07.19-.83.28-.54a.5.5,0,0,1,0-.27h.09a1.13,1.13,0,0,1,.12-.47.32.32,0,0,0,.06.2c.21-.82-.24-.24-.08-1l.06,0,0-.2.12-.18c-.13-.31.26-1,.26-1.5,0-.18.19-.38.26-.72h-.1a1.38,1.38,0,0,0,.14-.3l.08-.21,0-.11,0-.05v0c.08-.1.15-.12.23,0,0-.13,0,0-.07-.12s0-.15,0-.11a1.59,1.59,0,0,1,.07.2s0-.07,0-.11a.28.28,0,0,1,0-.13s0,0,0-.15,0-.25,0-.23a2.76,2.76,0,0,1,0,.29,1.18,1.18,0,0,1,0-.37c0,.09,0,.22.06.27s0,.32,0,.41a.22.22,0,0,1,0,.11l.09.6h0a10.13,10.13,0,0,0,.2,1.1v-.2a5,5,0,0,1,.19.63l-.06.16c.09.25.1.1.19.27a6.25,6.25,0,0,0,.18.86c0,.09-.08-.09-.11-.12.1.3.18.26.27.64h0c.18.49.32,1,.45,1.48l.2.78.1.39v.07l0,0,0,.08s0,0,0,0l.08.28-1,.15a8.57,8.57,0,0,0-1.24.28c.29,0,.69,0,1.09-.05l.58,0a2.19,2.19,0,0,1,.88-.13c0-.06,0-.1,0-.11a4.93,4.93,0,0,0-.26-.93,8.35,8.35,0,0,1-.3-1c0-.12.05-.07.08-.11l.19.63,0-.4a0,0,0,0,0,0,0ZM13.59,22.2l0,.21s0,.08-.08,0,0-.19,0-.2Zm-3.07,7.92h-.14l.14-.59C10.52,29.72,10.53,29.93,10.52,30.12Zm4.14-2.9c0,.13,0,.31,0,.31a20.22,20.22,0,0,1-.6-2.19,1.26,1.26,0,0,1-.07-.51c0,.13.06,0,.1.12-.1-.27-.16,0-.24-.4l.16,0c-.2-.13-.08-.51-.24-.78,0-.12.12.07.17.29,0-.26-.12-.26-.17-.47l.18.17a.41.41,0,0,1-.07-.42l.75,3.39a1.75,1.75,0,0,0-.12-.32c0,.24.13.52.18.79Zm-.95-4.11c0-.12,0-.07,0-.1s-.12-.09-.16-.27.09.1.13.1l.1.43s-.08,0-.12-.16Zm1.2,13c-.78,0-.91,0-.87-.08h1c-.12,0,.39.05-.13.09ZM17,37.69c-.1-.56,0-.28,0-.42a1.92,1.92,0,0,1-.14-.36l-.11-.38c0-.13-.07-.28-.11-.44h-.08s0,0,.11,0c.05.15.11.3.17.45l.45,2c0,.06-.07.06-.26-.83Z"/><path id="Tracé_53" data-name="Tracé 53" class="cls-2" d="M20.54,46.74h0l.07.11.15,0Z"/><path id="Tracé_54" data-name="Tracé 54" class="cls-2" d="M25.48,40.25h0Z"/><path id="Tracé_55" data-name="Tracé 55" class="cls-2" d="M24.1,34.81l.34,1.48-.1-.57Z"/><path id="Tracé_56" data-name="Tracé 56" class="cls-2" d="M76.32,25s-.06.2,0,.12C76.51,24.86,76.4,24.89,76.32,25Z"/><path id="Tracé_57" data-name="Tracé 57" class="cls-2" d="M76.8,19.47a2.39,2.39,0,0,1,.13.21c-.05-.12-.1-.24-.16-.36Z"/><path
        id="Tracé_58"
        data-name="Tracé 58"
        class="cls-2"
        d="M85.15,46c.27,0,.26,0,.11,0-.81-1.47-.93-1.58-1.75-3-.59-1.09-.73-1.54-1.2-2.5l.19.51c-.89-1.42-.53-1-1.26-2.13l.14,0a14.53,14.53,0,0,1-1-1.85l-.3-.33a13.88,13.88,0,0,1-.88-1.87l0,.13a6.85,6.85,0,0,0-.37-.69l-.58-1L78.13,33l0,0v0s0,0,0,0l.2-.13c.1-.05.1,0,0,.09l.17-.18.09-.08.14-.12.35-.29h.14l.54-.52c.18-.17.34-.36.5-.51.3-.32.53-.59.64-.68a6.28,6.28,0,0,0-.52.75,10,10,0,0,0,1.23-1.58,1.38,1.38,0,0,0,.21-.48,1.47,1.47,0,0,1,.13-.42c.06-.13.15-.3.28-.54l.2-.43.13-.26.13-.3,0,.07.16-.45c0-.15.09-.3.14-.45s.14-.3.2-.45l.17-.47a23.73,23.73,0,0,0,.42-3.36,4.68,4.68,0,0,0,0-.53c0-.18,0-.36,0-.54a4.89,4.89,0,0,0,0-.54L83.68,20l-.08-.51a3.38,3.38,0,0,0-.11-.48,7.82,7.82,0,0,0-.25-.88c-.07-.2-.15-.43-.22-.68l-.12-.38-.16-.41a10,10,0,0,0-1-1.93v.14c-.09-.14-.2-.34-.35-.56l-.23-.37-.3-.39a8,8,0,0,0-.69-.85l-.4-.43-.2-.22-.22-.2-.44-.4-.21-.2-.23-.18c-.3-.24-.58-.48-.86-.68l-.74-.52c-.22-.16-.41-.27-.54-.37-1.18-.51.11.08.06.13l-.76-.35L75,9c-.36-.14-.62-.28-.87-.36s-.45-.18-.68-.27l-.36-.13-.44-.12c-1.54-.29,1.17.29.33.17l-.76-.18a4.82,4.82,0,0,0-.57-.1L70.82,8l-.42,0h-.55l-.72,0-.92,0c-.14,0,0,0,.3,0l.4,0h.33a4.56,4.56,0,0,0-.51,0l-.56,0L66.9,8l-.69,0L66,8a1.27,1.27,0,0,0-.28.06,1.13,1.13,0,0,0-.52.3A1.06,1.06,0,0,0,65,9c0,.1,0,.21,0,.32s0,.14,0,.21a5.57,5.57,0,0,1,0,.66v3.47c-.06,3.38-.09,8.36-.17,12.3l0,.07c-.08,1.64,0,3.42,0,5.34l.05-.94c0,1.25,0,2,0,3.14l-.09.66a14.63,14.63,0,0,0,.13,1.5c-.06,1.17,0,3.63,0,4.19,0,.38-.06-.48-.09-.67,0,1.5.12,1.4.12,3.26l0,0c0,.74,0,1.51,0,2.3v1.29a1.67,1.67,0,0,0,0,.5.66.66,0,0,0,.27.36,1.06,1.06,0,0,0,.46.13h.44l4.15-.18h.25l0-.06A1.29,1.29,0,0,0,71.5,46a.8.8,0,0,0,0-.15.77.77,0,0,0,0-.15l0-.39.09-1.57.16-3.07a1.22,1.22,0,0,1-.07.38l.16-2.83c0-.62.07-1.25.1-1.87l2.12,3.56c.84,1.41,1.65,2.72,2.38,3.85-.65-1.11-1.47-2.6-2.32-4.11-.43-.76-.86-1.53-1.28-2.26s-.77-1.32-1.07-1.78c0,.29,0,.55,0,.8s0,.43-.07.7,0,.57-.05.84a8.68,8.68,0,0,1-.13,1.34c-.12,1.63-.18,2.88-.23,4L71.28,45c0,.14,0,.29,0,.43s0,.15,0,.22a1.31,1.31,0,0,1-.06.27,1,1,0,0,1-.72.65v0h-.1l-2.15.1c-.29,0-.36,0-.38,0h0l-.79,0-.39,0-.19,0h-.56a1,1,0,0,1-.35,0,.31.31,0,0,1-.15-.1.36.36,0,0,1-.08-.15,1.39,1.39,0,0,1,0-.35v-.64c0-.19,0-.38,0-.56,0-.76,0-1.51,0-2.27,0-1.51,0-3,0-4.73,0-1,0-2.31,0-2.47,0,.64,0,.16.07.68A13.9,13.9,0,0,1,65.23,34l.15.26c-.16-.8,0-2.45-.07-3.88.07-.51.1.43.1,1.53,0-1.25-.06-1.36-.06-2.35l.13.94a8.53,8.53,0,0,1,0-2V35h0V45c0-.55,0-1.07-.05-1.51,0,.54,0,1.15,0,1.79v1a.51.51,0,0,0,.07.24.36.36,0,0,0,.24.09,4.1,4.1,0,0,1,.5,0h.14c.54,0,1.34,0,1.43,0s0,0-.07,0l2.6-.13h0a.91.91,0,0,0,.47-.23,1,1,0,0,1-.48.22h0l-1.37,0h.06l1.31,0h0a.88.88,0,0,0,.71-.6l0-.14.33-5.22.34-5.21,3,5.25,3,5.25h0l0,.08,0,.09.08.14.08.13a.78.78,0,0,0,.55.4h2.59l-.75.06,1.11-.06h.27c1.15.06-.33.12-.84.14,1.61,0,1.36-.08,1.2-.14h2.43a.72.72,0,0,0,.29-.06l.11-.06.09-.08s0,0,0,0a.54.54,0,0,0,0-.11s0,0,0-.06a.46.46,0,0,0,0-.2h0l0,0h0ZM76.59,24.75a6.75,6.75,0,0,1-.59.88,1.19,1.19,0,0,0,.08-.2c0,.09-.09.18-.13.26l0,0c-.24.2,0-.13,0-.25-.24.34-.15.32-.09.33a5.79,5.79,0,0,1-.45.5l-.16.15a6.19,6.19,0,0,1-.55.47c.16-.17.31-.39.46-.57-.33.27-.33.33-.66.59a2.44,2.44,0,0,1-.69.23H74c-.32.28-.27.11-.52.35l-.05-.13c-.07.12-.36.2-.48.22l-.06.13-.18,0h-.11a.09.09,0,0,1-.1-.06s0,.06,0,.09-.15,0-.24.05h-.07a0,0,0,0,1,0,0,.16.16,0,0,1,.07-.09s-.06,0-.06-.06l.09-.09c0-.05-.05-.14,0-.17s.06,0,.1,0v0h0v-.1a.58.58,0,0,0,0-.18.17.17,0,0,0-.1-.12c-.08,0-.16-.07-.18-.53h.06L72,26.3l.07-.25c-.21-.33,0-1.32-.15-1.88,0-.22.08-.52,0-.94l-.09,0a10.44,10.44,0,0,1,.29-1.94c-.08-.32,0,0-.09,0a1.79,1.79,0,0,1,.07-1c-.06-.39,0,.3-.11.09,0-.6-.12-.48-.09-1.21,0-.07,0,.19.08.26a20.69,20.69,0,0,1-.13-2.23c0-.44,0-1,0-1.54v-.15l0,0s0,0,0,0l0,0v0c0,.06,0,0,0,0l.13.07.15.08a1.67,1.67,0,0,1,.28.18l-.17-.16a4.54,4.54,0,0,1,.68.38l.08.17c.27.16.16,0,.37.11s.72.56.82.66-.13,0-.19,0c.3.21.35.13.69.44v0A5,5,0,0,1,76,18.83a7.29,7.29,0,0,1,.77,1.71c0-.08,0-.06,0-.1a6,6,0,0,1,.22,2,10,10,0,0,1-.27,1.81A7.79,7.79,0,0,0,77.19,23a2.89,2.89,0,0,0,0-1.34c.06-.28-.1-.68,0-.81a3.67,3.67,0,0,0-.39-1.2c-.18-.32-.36-.63-.62-1.05-.06-.13,0-.1,0-.16.15.22.3.45.43.68-.06-.15-.13-.3-.2-.45h0c.1.19.21.38.3.59a7.07,7.07,0,0,1,.27.69,6,6,0,0,1,.33,2,5.84,5.84,0,0,1-.75,2.86ZM73.39,16l.14-.09c-.25,0-.5-.38-.86-.48-.09-.12.14,0,.38.11-.25-.19-.33-.12-.54-.25h.27a.65.65,0,0,1-.45-.27c.27.14.54.3.8.46s.7.48,1,.73.77.63,1.08.91.33.34.48.52a2.52,2.52,0,0,0-.3-.27c.18.22.43.49.62.77s.17.35.12.36c-.31-.38-.6-.71-.9-1a8.92,8.92,0,0,0-1.05-.9,2.11,2.11,0,0,1-.47-.42c.14.09.06,0,.18.05-.31-.19-.12.1-.53-.21Zm-2.08-1.31,0,0s0,0,.07.11,0,.17-.08.12Zm.35.14c-.06-.07.08,0,.08-.08l.07,0,.43.2c0,.05,0,.09-.2,0s-.07-.08-.1-.12-.11.05-.28,0Zm-6.81,8v1c0-.12,0,.39-.08-.13,0-.78,0-.92.08-.87Zm-.08,4.39c0-.57,0-.28.07-.41a7.59,7.59,0,0,1-.1-1.43c.05-.15.07.54.11.63v2.09c0,.05-.08,0-.08-.88ZM83.71,43.49c.48.77,1.05,1.62,1.55,2.43h-.17Z"/><path id="Tracé_59" data-name="Tracé 59" class="cls-2" d="M78.19,46.47c-.1-.09-.13-.13-.14-.12s0,0,.06.12a.78.78,0,0,0,.26.22l.17,0,.24,0c.13,0,.2,0,0,0A.7.7,0,0,1,78.19,46.47Z"/><path id="Tracé_60" data-name="Tracé 60" class="cls-2" d="M70.53,46.54l-.13.09.09,0,0-.06Z"/><path id="Tracé_61" data-name="Tracé 61" class="cls-2" d="M70.4,46.47l0,0h0Z"/><path id="Tracé_62" data-name="Tracé 62" class="cls-2" d="M67.17,46.69h0A0,0,0,0,0,67.17,46.69Z"/><path id="Tracé_63" data-name="Tracé 63" class="cls-2" d="M71.47,43.72l-.09,1.53.07-.58Z"/>
        <g id="Groupe_26-2" data-name="Groupe 26-2"><path id="Tracé_64" data-name="Tracé 64" class="cls-3" d="M104,27.47s.16.44.13.17C104,27,104,27.21,104,27.47Z"/><path id="Tracé_65" data-name="Tracé 65" class="cls-3" d="M100.39,14.87l.26.49c-.12-.27-.25-.54-.38-.81Z"/><path id="Tracé_66" data-name="Tracé 66" class="cls-3" d="M102.77,9.83c.35.25.48.34.5.32s-.09-.13-.23-.24S102.49,9.6,102.77,9.83Z"/><path
          id="Tracé_67"
          data-name="Tracé 67"
          class="cls-3"
          d="M110.39,25.36a30,30,0,0,0-.4-3,.76.76,0,0,1,0,.3,25.21,25.21,0,0,0-1.81-6.14A15.76,15.76,0,0,0,105,11.76a16.31,16.31,0,0,1,2.28,3.4A38.6,38.6,0,0,1,108.91,19a17.79,17.79,0,0,1,.56,2.4c.3,1.58.46,2.7.58,3.81a22.75,22.75,0,0,1,.11,3.78c0,.22,0,.28,0,.3h0a22,22,0,0,1-.49,4.2,27.24,27.24,0,0,1-1.21,4.14,9.39,9.39,0,0,1-.84,1.75c.21-.46,0-.13.17-.51-.22.5-.2.54-.21.63a1,1,0,0,1-.07.25l-.37.68,0-.25a1.7,1.7,0,0,1-.24.53,4.65,4.65,0,0,1-.41.64l-.24.34-.27.35c-.17.23-.35.46-.51.7s-.11.05,0-.15l.27-.38.36-.49c-.3.39-.45.61-.59.81a5.7,5.7,0,0,1-.52.67c.13-.21.26-.43.38-.65A2.36,2.36,0,0,1,105,43a4.27,4.27,0,0,1-.36.38l-.37.3a16,16,0,0,0,2.2-2.73c.14-.22.27-.44.4-.67a22.16,22.16,0,0,0,2.22-5.43c.08-.29.15-.58.22-.87.13-.55.24-1.12.34-1.69,0,.38-.11.74-.15,1.06a27.51,27.51,0,0,0,.46-3c.06-.42.14-1,.17-1.11s0,0,0,.05c0-.81,0-1.63,0-2.45,0,.5,0,1,0,1.49v-.06c0-.3,0-.6,0-.9s0-.67,0-1c0-.65-.06-1.3-.12-1.93a28.37,28.37,0,0,0-1.07-5.4c-.17-.56-.36-1.1-.57-1.63a22.78,22.78,0,0,0-1-2.25c-.25-.48-.52-.93-.79-1.37s-.57-.84-.87-1.23-.62-.76-1-1.1a11.46,11.46,0,0,0-1-1,10.33,10.33,0,0,0-2.49-1.59,5.2,5.2,0,0,1,.55.21l-.45-.19-.33-.12-.22-.09c-.4-.17-.36-.18-.15-.13a3,3,0,0,1,.41.12l.4.14c-.21-.08-.38-.16-.51-.2l-.31-.09c-.15,0-.18,0-.18,0l.07.07a7.92,7.92,0,0,0-4.84-.14,5.08,5.08,0,0,1,.59-.18A8.08,8.08,0,0,1,97.76,8a7.09,7.09,0,0,0-1.38.13l-.56.13-.35.1a2.83,2.83,0,0,0-.41.14c-.47.14-.79.26-1.09.36a8.5,8.5,0,0,0-1,.42l.42-.15-.91.61a3.62,3.62,0,0,0-.68.56l0-.14a5.67,5.67,0,0,1-.61.59c-.24.22-.49.43-.63.57l-.16.32c-.15.14-.28.29-.4.42l-.32.34a2.5,2.5,0,0,1-.43.43l.12,0a14.88,14.88,0,0,0-.91,1.33c-.32.55-.57,1-.4.49a8.23,8.23,0,0,1-.41.92l-.11,0c-.31.71-.62,1.51-.74,1.7a3.22,3.22,0,0,0,.17-.68c-.63,1.52-.57,1.72-.54,1.86s.06.23-.31,1.61l0,0c0,.24-.08.48-.11.72l-.24.72a7.89,7.89,0,0,1-.11,1.09c-.06.45-.14,1-.2,1.5a19.14,19.14,0,0,0-.17,3.12,24.81,24.81,0,0,0,0,2.86l.08-.09a22.61,22.61,0,0,0,.27,3c.17,1.21.45,2.4.49,2.9.38.92,0-.1.06-.1.33.9.51,1.39.62,1.77s.18.68.37,1.15c.54,1.07-.34-.85,0-.29a9.13,9.13,0,0,0,.77,1.53c.23.35.46.77,1.07,1.72.09.21-.36-.46-.5-.65a23.82,23.82,0,0,0,2,2.51,11.74,11.74,0,0,0,3,2.38,9,9,0,0,0,2.11.91,8.45,8.45,0,0,0,2.6.34,8.68,8.68,0,0,0,2.67-.48,10.45,10.45,0,0,0,2.32-1.15l0-.06a12.52,12.52,0,0,0,3.14-3c-.16.2-.34.38-.51.57a23.5,23.5,0,0,0,1.43-2.1c.11-.14.24-.27.35-.41a5.79,5.79,0,0,0,.45-1.13,12.93,12.93,0,0,0,.78-1.69c.24-.62.42-1.2.49-1.41s-.06.39-.09.54a11.61,11.61,0,0,0,.3-1.16c.06-.31.14-.65.32-1.38l0,0c.17-.87.33-1.8.45-2.77s.19-2,.22-3S110.46,26.38,110.39,25.36ZM93.93,18.64l.54-.8c.28-.42.56-.86.85-1.33.18-.31.37-.63.55-1l.27-.49c.18-.33.35-.67.5-1s.31-.68.44-1a12.42,12.42,0,0,0,.59-1.88c-.06.34-.14.63-.18.87a7.76,7.76,0,0,0,.22-.79v-.12s0,0,0,0l.14.06a1.2,1.2,0,0,1,.27.16,2.4,2.4,0,0,1,.47.43,2.27,2.27,0,0,1,.27.48c.08.15.13.27.1.26l-.16-.24L98.7,12l-.17-.2-.15-.14a2.32,2.32,0,0,0-.3-.22l-.16-.08-.08,0,0,.09c0,.11,0,.22-.08.34l0,.17,0,.08,0,.12c-.1.33-.22.65-.35,1-.25.64-.55,1.28-.89,2a8.22,8.22,0,0,1-.74,1.25c.17-.34,0-.1.13-.39-.38.72.11.16-.52,1.16l0-.21A15.49,15.49,0,0,1,94,18.85c-.1.1-.09,0,0-.12s.26-.41.43-.68c-.26.38-.49.77-.71,1.17.06-.18.13-.35.19-.53a4.3,4.3,0,0,1-.41.72l-.22.29A8.78,8.78,0,0,1,93.93,18.64Zm-.76,1.28s.1,0-.14.5c-.14.3-.11.13-.16.19a2.85,2.85,0,0,1-.21.81c-.08.07.06-.33,0-.39q.23-.59.48-1.11Zm-.9,2.31c0,.1.12-.2.06.1s-.19.5-.22.46.11-.37.16-.56Zm8.92,23.64a2.57,2.57,0,0,1-.59.2c-.07,0-.08,0-.08,0,.25-.09.49-.19.73-.3,0,0,0,0,0,0s.17,0-.08.11Zm2.33-1.47c-.36.27-.2.1-.29.15a3.14,3.14,0,0,1-.86.72c-.07,0,0-.06.13-.15a1.45,1.45,0,0,0,.22-.21l.36-.26a10.62,10.62,0,0,0,.91-.77c.06,0,.08,0-.47.52Zm.17-11.2c.15-.51.27-1.1.4-1.64-.32.92-.29,1-.62,1.93a10,10,0,0,1-.8,1.39l.21-.24c-.35.9-.32.58-.6,1.29l-.11-.1a3,3,0,0,1-.67,1,2.33,2.33,0,0,1-.07.25,2.34,2.34,0,0,1-.9.69l.1,0a4.4,4.4,0,0,0-.4.26l-.31.18-.17.09c-.08,0,.29.08.22.12l-.18.12a.39.39,0,0,0-.1.16,2.06,2.06,0,0,0-.09.26c0,.12-.06.1,0-.19a.83.83,0,0,0,0,.22v.21a4.47,4.47,0,0,1,0,.47l-.09,0c0,.59,0,1.23,0,1.4a1.93,1.93,0,0,0-.11-.52c0,1.23-.1,1.35,0,1.44a.46.46,0,0,1,.12.24c0,.08-.18.19-.15.34s0,.26.06.46l-.06,0,.1.3v0s0,0-.07,0l-.09,0L99,43.31c-.05,0-.13,0-.31,0s-.49-.12-.76-.2a12.43,12.43,0,0,1-1.44-.53c0-.1,0-.2,0-.29a.85.85,0,0,1,.06-.17.76.76,0,0,0,0-.33v-.2a.68.68,0,0,1,0-.19q0-.19.09-.45A5.36,5.36,0,0,0,97,39.69l-.1.06a.84.84,0,0,0,0-.19c0-.1,0-.2,0-.31v-.18s0-.07,0-.09l-.08,0-.35-.21-.27-.16L96,38.38a5.69,5.69,0,0,1-1.72-2c-.46-.5,0,.06,0,.1-.11-.13-.2-.24-.28-.35a2,2,0,0,1-.19-.29,2.42,2.42,0,0,1-.24-.45L93.39,35c0-.13-.08-.26-.14-.43-.38-.73.23.59,0,.22L93,34.16c-.07-.17-.14-.29-.2-.43a5.82,5.82,0,0,1-.43-1.36c0-.16.14.39.21.54a10.79,10.79,0,0,1-.48-2.17,19.62,19.62,0,0,1-.15-2.65,22,22,0,0,1,.38-3.35,16.93,16.93,0,0,1,1-3.43v0L93.92,20c.12-.21.23-.43.37-.64l.2-.32.25-.34-.34.42c.36-.62.63-1,1-1.56l.28-.28c.38-.67.11-.33.36-.83a10.1,10.1,0,0,0,.69-1.2c.23-.44.41-.85.48-1s-.07.28-.1.4c.36-.84.26-.8.66-1.86h0c0-.12.07-.24.1-.36l0-.18,0-.05v-.05L98,12v-.11c0-.07.05,0,.08,0l.11.06.1.1a2,2,0,0,1,.22.29c.32.52.64,1,.92,1.57.14.27.3.55.43.82s.27.54.39.81.24.55.35.83.22.55.32.83a.42.42,0,0,1,0-.22c.52,1.41,1,3,1.36,4.5s.82,2.95,1.26,4.08c-.48-1.59-1-4.35-1.58-5.93-.1-.61-.46-1.51-.45-1.78a17,17,0,0,0-1-2.67c-.19-.37-.39-.73-.6-1.12s-.46-.83-.76-1.32c-.15-.29,0-.18,0-.28.33.51.64,1,.92,1.57-.15-.33-.31-.67-.49-1l0,0,.19.35.12.22.2.39.16.32a15.29,15.29,0,0,1,.64,1.42,30.36,30.36,0,0,1,1,3.09c.08.27.15.54.22.81.67,2.45,1.21,5,2,7.35,0,.13.08.29.12.45s.07.35.1.55.1.7.12,1.06a3.82,3.82,0,0,0-.09-.44c0,.22.08.44.1.66a.53.53,0,0,0,0,.13c0,.69-.11-.18-.17-.46.07.65.09.77.13.75s0,0,0-.07v.26a6.3,6.3,0,0,1-.2,1.73,15.4,15.4,0,0,1-.5,1.6Z"/><path id="Tracé_68" data-name="Tracé 68" class="cls-3" d="M110,25.55c0-.24-.06-.48-.09-.73l0,.6,0,.6Z"/></g><path
          id="Tracé_69"
          data-name="Tracé 69"
          class="cls-4"
          d="M98,13.69c.46.13.29,0,.48.35.63.54.78,1.82,1.19,2.55,1.58,2.89,2,7.48,3.16,10.78a7.36,7.36,0,0,1,0,3.67,13.22,13.22,0,0,1-2.05,4.26c-.44.54-1.38,2.45-1.89,2.94a24.08,24.08,0,0,0-.16,4.41h-.15c-.3-.19-.78-.18-1.13-.35l-.16-.12a8.84,8.84,0,0,0,.18-3.83C92.43,35.85,92,25.5,94.63,20.73,95.58,19,97.58,15.77,98,13.69Z"/>
        <g id="Groupe_28" data-name="Groupe 28">
          <g id="Groupe_27" data-name="Groupe 27"><path
            id="Tracé_70"
            data-name="Tracé 70"
            class="cls-5"
            d="M97.84,34.94,98,32.71a9.35,9.35,0,0,1,0-2.18c-.28-2.56-.43-4.64-.7-7-.28-2.15.68-2.93.12-5,.28-.1.28-1.41.56-1.72.28-.1,0-.41.28-.41A36.71,36.71,0,0,0,98,24.28c.28,4.08,1.34,4.7.46,8.48a7.24,7.24,0,0,1-.18,2c-.09.76.26,2.09-.3,2.6C97.74,36.71,98.12,36,97.84,34.94Z"/></g><path
            id="Tracé_71"
            data-name="Tracé 71"
            class="cls-5"
            d="M98,33.91a5.64,5.64,0,0,1-1.49-1.26c-.19-.27-.63-.48-.88-.79-.7-.14-.49-.31-1-.74-.35-.27-.06-.1-.42-.25a2.08,2.08,0,0,0-.6-.18,1.84,1.84,0,0,0,.51.6c.4.35.24.32.71.8-.1.07.26.19.16.25,1.12.63,1.94,1.64,3.15,2.24.07-.11-.37-.5-.13-.59h0Z"/><path
            id="Tracé_72"
            data-name="Tracé 72"
            class="cls-5"
            d="M101.83,30.36c-.52.7-.22.09-.55.38s-.34.48-.57.74l-.32.4c-.26.31-.36.4-.61.72s-.33.34-.48.53a2.32,2.32,0,0,1-.46.48c-.5.37-.58.94-.84,1.21.41-.41.36.12.76-.29-.12.1.66-.78.7-.68,1.39-1.39,1.84-2.42,2.85-3.44a3.15,3.15,0,0,1,0-.32Z"/><path
            id="Tracé_73"
            data-name="Tracé 73"
            class="cls-5"
            d="M98.6,30.05c.42-.67-.14.36.06.06a6.64,6.64,0,0,0,.63-.56c.14-.18.27-.43.42-.63s.63-.6.87-1,.15-.52.3-.76.12-.05.25-.25c.41-.62.2-.74.51-1.13-.49.58-.27,0-.74.58.11-.1-.86,1.17-.93,1.05-.35.43-.63.79-.87,1.1l-.48.64c-.38.54-.06.34-.36.87,0,.2-.07.12,0,.22Z"/><path
            id="Tracé_74"
            data-name="Tracé 74"
            class="cls-5"
            d="M93.59,26.21c.25.23.37-.07.66.14s.88.72,1.18.92a3.14,3.14,0,0,1,.54.47c.94.9,1.33,1.22,2.16,2-.23-.11-.16.6-.28.4-.29-.07-.49-.29-.8-.36-.22-.28-.77-.86-1-1.13-.4-.43-.57-.34-1-.75s-.91-1.15-1.43-1.72Z"/><path id="Tracé_75" data-name="Tracé 75" class="cls-5" d="M100.85,21.71c-.23.26-.36,0-.64.28S99,23.1,98.73,23.34s-.61,1-.88,1.27c-.5.53.09.82.2.7s.71-.93,1.12-1.46c.26-.34.8-.75,1-1.07s.5-.88.64-1.07Z"/><path id="Tracé_76" data-name="Tracé 76" class="cls-5" d="M95,22.66c.57.6.3.1.57.37s.56.33.82.51a7.19,7.19,0,0,1,1,1.19s.46,1,.16.84a25,25,0,0,1-2.16-1.95,6.8,6.8,0,0,1-.8-.81c0-.17,0-.28,0-.37Z"/></g>
      </g>
    </g>
  </g>
</svg>
