<svg xmlns="http://www.w3.org/2000/svg" width="50" height="57" viewBox="0 0 50.2 57.2"><defs><style>.cls-1{fill:#122cc6;}.cls-2{fill:#fff;}.cls-3{fill:#c10016;}</style></defs><g id="Calque_2" data-name="Calque 2"><g id="Calque_1-2" data-name="Calque 1"><g id="Groupe_160" data-name="Groupe 160"><g id="Groupe_157" data-name="Groupe 157"><path id="Tracé_124" data-name="Tracé 124" class="cls-1" d="M14.86,14.16l0,0c-.05,0-.08,0-.1.09v.09l.08,0A.13.13,0,0,0,14.86,14.16Z"/><path id="Tracé_125" data-name="Tracé 125" class="cls-1" d="M14.74,15.63v.06h0s.08,0,.08-.06,0,0,0,0a.07.07,0,0,0-.1,0S14.74,15.62,14.74,15.63Z"/><path id="Tracé_126" data-name="Tracé 126" class="cls-1" d="M14.29,56.23a4.21,4.21,0,0,1,.71-.12,3.23,3.23,0,0,1,1.07.21.46.46,0,0,0,.44,0c.19-.13,2.11-.4,2.2-.61a1.27,1.27,0,0,1,.18-.29.61.61,0,0,0,.12-.62.41.41,0,0,1,0-.22.46.46,0,0,0,.2-.38.48.48,0,0,1,.15-.28c.15-.16,0-.3.08-.49s-.15-.29-.1-.46c.12-.37-.1-.66-.2-1.11,0,0,0,0,0-.08.23,0,.24-.05.14-.22l-.08.06.08-.06v-.13h0c.11-.11.09-.2-.08-.31a4,4,0,0,1-.1-.85.31.31,0,0,1-.05-.1.31.31,0,0,0,.05.1.11.11,0,0,0,0-.11c-.06-.45-.31-.69-.24-1.11a6.69,6.69,0,0,1,.09-.9c0-.1-.18-.46-.17-.57,0-.37,0-.73,0-1.1a6.06,6.06,0,0,0-.1-1.12c-.08-.81-.14-1.63-.26-2.43s-.24-1.63-.4-2.44-.32-1.76-.47-2.63c-.18-1.08-.38-2.16-.55-3.24-.09-.55-.11-1.11-.22-1.65a1,1,0,0,0-.08-.65c0-.09.06-.17,0-.26-.09-.71-.22-1.41-.3-2.12l-.15-1.27c-.14-1.23-.3-2.45-.5-3.66,0-.33-.09-.66-.14-1a16,16,0,0,1-.25-1.71,5.26,5.26,0,0,1-.13-1,.45.45,0,0,0,0-.16,4.7,4.7,0,0,1-.27-1.3h0c.08-.11.06-.17-.07-.18s0-.1-.08-.12v-.13a.52.52,0,0,0,0-.51,1.57,1.57,0,0,1-.13-.65s.08,0,.07-.08-.06-.05-.09-.05a.38.38,0,0,1-.09-.25c.06-.13,0-.31.19-.38-.06-.05-.12,0-.16-.07a1.33,1.33,0,0,0,.19-.14.15.15,0,0,0,0-.11c0-.06-.06,0-.09,0s-.08,0-.12,0l.29-.17s-.1,0-.1-.06,0-.27-.09-.39a.19.19,0,0,1,0-.2c.1-.1.19-.2,0-.22,0,0,0-.07-.06-.1a.7.7,0,0,1,0-.53,1.09,1.09,0,0,0,0-.69c0-.14,0-.17.1-.21s.12.05.16,0-.18,0-.18-.17-.12,0-.15,0a.26.26,0,0,1,0-.24c.15-.1.26-.2.1-.39,0,0,0-.05,0-.06.08-.17,0-.25-.13-.3s-.1-.07-.1-.1-.1-.13-.19-.12-.1,0-.12-.09a4.1,4.1,0,0,1,.7-.12c-.27-.1-.27-.1-.4-.07s-.31-.06-.27-.27.09-.11.13-.17.13-.29,0-.42a1.19,1.19,0,0,0-.22-.12c.18-.08.32-.23.24-.42a.36.36,0,0,1,0-.36c.09-.18,0-.18-.08-.37s-.21,0-.31-.08a5.67,5.67,0,0,1,.58-.52.1.1,0,0,0,0-.11.07.07,0,0,0-.07-.05h0c-.13.1-.29.07-.41.16s-.13.05-.21-.07c.24,0,.13-.13.14-.24s-.14,0-.15-.13a1,1,0,0,1,.22-.48.44.44,0,0,0,.08-.37l-.06-.44a.36.36,0,0,0-.15-.3.19.19,0,0,1-.06-.25l0,0A.57.57,0,0,0,14,7.4l-.33-.06c0-.08.14-.09.08-.2s.3,1.84.45,1.75c-.19,0-.27-.12-.39-.17a.43.43,0,0,1-.3-.45.16.16,0,0,1-.08-.12c-.07-.28-.24-.51-.3-.8a.14.14,0,0,1,0-.14l0-.13c-.16,0-.21-.32-.43-.27,0,0,0,0,0-.08s-.11-.19-.21-.19-.08,1-.12.89A.82.82,0,0,0,11.8,7h-.12c-.31,0-.54-.26-.81-.39l-.18,0a.46.46,0,0,1-.37-.11.85.85,0,0,0-.84-.14c-.21,0-.43.05-.64.1s-.26,0-.31.22a.46.46,0,0,1,.26,0,.46.46,0,0,0-.26,0c-.12,0-.37-.92-.46-.82s-.2.28-.36.33l-.16.41a.13.13,0,0,0,0,.06s-.08.1-.14.06a.08.08,0,0,1,0-.08c0-.1.11,0,.17,0l.16-.41c-.22,0-.22,0-.3.24-.08-.09,0-.25-.11-.34s0,.07,0,.11c0,.57-.36-.89-.38-.32a1.8,1.8,0,0,0,0,.8,1.78,1.78,0,0,0,0,.46c-.09.1,0,.17,0,.25a.13.13,0,0,0,0,.06c-.26.07-.26.07-.23.36a.92.92,0,0,0,0,.16s-.09,0-.1,0-.08-.31-.27-.33c0,0,0-.09-.08-.13a3.05,3.05,0,0,0-.54-.69c-.18-.23-.45-.22-.7-.25a7.87,7.87,0,0,0-.84,0c-.06-.14-.16-.07-.25-.07,0-.2-.12-.18-.25-.15a.11.11,0,0,1-.1.08c-.27,0-.32.22-.38.43C2.94,6.76,3,6.57,3,6.43l-.06-.06a.18.18,0,0,1-.08-.11h0a.64.64,0,0,1-.32.18.18.18,0,0,0-.16.12A1,1,0,0,0,2.21,7h0s0,.07,0,.11a1.92,1.92,0,0,0-.14.63,1.27,1.27,0,0,1-.45.38c-.06,0-.14.06-.18,0S1.24,8,1.13,8s-.3.12-.47.09a.16.16,0,0,0-.17.14c0,.13-.13.22-.11.36a5.91,5.91,0,0,0-.25.94L0,9.8v.1a2.46,2.46,0,0,1,0,.26,16,16,0,0,0,0,2.19c0,1,.06,1.9.06,2.85,0,.16,0,.32,0,.48a.69.69,0,0,0,.07.49c.07.12,0,.3-.07.46a0,0,0,0,0,0,0,.83.83,0,0,1,0,.56.41.41,0,0,0,0,.22,1.45,1.45,0,0,1,.09.87,3.58,3.58,0,0,0,0,.8c-.15.05-.08.16,0,.27s0,.16,0,.25.06.3.14.44a.27.27,0,0,0-.09.2h0c0,.09-.09.17,0,.26a.07.07,0,0,0,.07.06h0c0,.13-.07.26,0,.39-.09.18,0,.35,0,.52l0,.08v.12a7.81,7.81,0,0,1,.1,1c0,.41.07.81.08,1.22a15.09,15.09,0,0,0,.15,1.77l0,.26,0,.18v.07a1.19,1.19,0,0,0,0,.46c0,.07-.06.14,0,.19,0,.43.07.86.11,1.3,0,.05,0,.09,0,.12l0,.39H1s0,.08,0,.12l0,.4,0,.39,0,.13a7.81,7.81,0,0,0,.14,1,5.56,5.56,0,0,0,.08.7c0,.11-.08.22,0,.32v.13a.41.41,0,0,0,0,.29c.13.72.09,1.46.25,2.17a.57.57,0,0,0,0,.13c-.06.05-.06.09,0,.12l0,.13,0,0,0,0c-.06.05-.06.09,0,.13l0,.26h0l.06.38,0,.32.1.78v0l.07,1a.8.8,0,0,0,.09.57c0-.07,0-.14,0-.22,0,.08,0,.15,0,.22l0,.2A.61.61,0,0,0,2,38.8a.14.14,0,0,0,0-.06.14.14,0,0,1,0,.06l.06.45c.09.64.17,1.28.26,1.93l0,.25c-.09.06-.11.13,0,.2a.85.85,0,0,1,0,.32c0,.32.07.65.14,1a4.79,4.79,0,0,0,.1.76,3.83,3.83,0,0,0,.08.67,1.33,1.33,0,0,0,.12.55c.2,1.48.38,3,.65,4.43.18,1,.38,2,.59,3,.06.28.12.57.19.85a5.74,5.74,0,0,1,.21,1,1.73,1.73,0,0,0,.12.46,1.76,1.76,0,0,1,.2.8.17.17,0,0,0,.1.18l.24.1a6.82,6.82,0,0,0,1.67.36.38.38,0,0,1,.38.36c0,.1.09.2.11.3a.48.48,0,0,0,.45.37,2.42,2.42,0,0,0,.8,0,2.43,2.43,0,0,0,.66,0L10.61,57c.22.07,1.85-.42,2.06-.34l.28-.07a.12.12,0,0,1,.11-.07s.51,0,.65-.18Z"/><path id="Tracé_127" data-name="Tracé 127" class="cls-1" d="M14.73,15.72v0S14.71,15.72,14.73,15.72Z"/></g><g id="Groupe_158" data-name="Groupe 158"><path id="Tracé_131" data-name="Tracé 131" class="cls-2" d="M34.06,44s0,0,0,0a.09.09,0,0,1-.12-.06l0-.08a.22.22,0,0,1,.08,0A.1.1,0,0,1,34.06,44Z"/><path id="Tracé_132" data-name="Tracé 132" class="cls-2" d="M33.57,42.61s0,0,0-.06h.05s.08,0,.1,0a.06.06,0,0,1,0,0s-.07,0-.09,0Z"/><path id="Tracé_133" data-name="Tracé 133" class="cls-2" d="M22.64,3.8a3,3,0,0,0,.72-.1,3.27,3.27,0,0,0,1-.53.46.46,0,0,1,.44-.09A15.62,15.62,0,0,1,27,3a1.26,1.26,0,0,0,.24.22.55.55,0,0,1,.27.56.51.51,0,0,0,.06.21.43.43,0,0,1,.3.3.43.43,0,0,0,.21.23c.19.1,0,.29.2.44s-.07.33,0,.47c.21.33.08.67.1,1.13,0,0,0,0,0,.07.22,0,.24,0,.19.16l-.09,0,.09,0,0,.13h0c.13.07.14.16,0,.33a4.05,4.05,0,0,0,.12.84.36.36,0,0,0,0,.11.36.36,0,0,1,0-.11.13.13,0,0,1,.06.1c.06.45-.12.75.06,1.14a5.26,5.26,0,0,0,.32.83c.06.09-.05.5,0,.6.09.36.17.71.23,1.07a5.87,5.87,0,0,1,.2,1.11c.13.8.29,1.6.38,2.41s.18,1.64.24,2.47.15,1.78.23,2.66c.1,1.09.2,2.19.31,3.27.06.56.19,1.1.22,1.66a.87.87,0,0,1,.08.65c0,.09.1.14.08.24.1.71.16,1.43.26,2.14l.19,1.26c.18,1.22.34,2.44.46,3.67l.12,1a16.59,16.59,0,0,0,.2,1.71,4.62,4.62,0,0,0,.13,1,.38.38,0,0,1,0,.15,4.22,4.22,0,0,0,.08,1.33h0c.1.09.09.15,0,.2s0,.11,0,.14l0,.13a.51.51,0,0,1,.17.48,1.84,1.84,0,0,0,0,.66s.09,0,.09.06,0,.06-.08.08a.46.46,0,0,0,0,.26c.09.11.1.29.28.31-.05.06-.12,0-.13.12a.86.86,0,0,1,.21.07.14.14,0,0,1,.07.1s0,0-.08.06-.08,0-.11.07l.32.06s-.08.08-.08.1a.51.51,0,0,1,0,.4.17.17,0,0,0,.1.18c.12.07.24.14,0,.24,0,0,0,.07,0,.11a.68.68,0,0,0,.1.52,1,1,0,0,1,.2.65c0,.15.07.16.15.17s.1-.08.16,0-.16.09-.12.22-.13,0-.14.09,0,.2.1.21.3.11.2.35l0,0c.12.14.07.24,0,.33A.17.17,0,0,0,34,45c0,.15-.07.15-.15.17s-.1,0-.1.13a5.62,5.62,0,0,0,.7-.1c-.23.18-.23.18-.38.18s-.27.16-.18.35.11.08.17.12a.24.24,0,0,1,.13.33.24.24,0,0,1-.06.09l-.18.18c.2,0,.37.12.34.32a.34.34,0,0,0,.13.34c.13.15.08.17,0,.38s-.21,0-.27.17a3.6,3.6,0,0,0,.69.32.1.1,0,0,1,.07.09.06.06,0,0,1-.08.07c-.14-.06-.29,0-.43,0s-.14,0-.18.12c.22-.1.15.09.2.19s-.14.08-.12.17a1,1,0,0,0,.33.4.41.41,0,0,1,.18.32l.06.45a.36.36,0,0,1-.07.33.18.18,0,0,0,0,.26l0,0a.54.54,0,0,1,.18.34l-.3.16s.15,0,.12.16-.18-1.86,0-1.82c-.19.06-.24.2-.34.28a.49.49,0,0,0-.17.53.18.18,0,0,0,0,.14c0,.29-.1.56-.09.86a.16.16,0,0,0,.05.14v.12c-.15.1-.12.37-.34.4,0,0,0,.05,0,.08s-.06.22-.16.25-.32-.93-.34-.82a.89.89,0,0,1-.43.57l-.11,0c-.29.12-.45.42-.68.63l-.16.09a.49.49,0,0,0-.33.22.88.88,0,0,1-.76.4c-.22,0-.43.08-.64.1s-.27,0-.36-.12a.39.39,0,0,0,.24-.12.39.39,0,0,1-.24.12c-.12,0-.11,1-.22.93s-.27-.2-.44-.2L29,53.53a.14.14,0,0,1,0-.06c-.05,0-.1-.07-.15,0a.06.06,0,0,0,0,.08c.07.09.12,0,.17,0l.27.35c-.2.12-.2.12-.36-.14-.06.12.06.25,0,.36S28.81,54,28.8,54c-.19-.53-.12,1-.29.43a1.87,1.87,0,0,1-.2-.77,2.16,2.16,0,0,1-.14-.43c-.1-.07-.05-.16,0-.25a.13.13,0,0,1,0-.06c-.27,0-.27,0-.31-.27l0-.16s-.09,0-.09.08,0,.32-.17.4,0,.1,0,.15a3.54,3.54,0,0,1-.34.83c-.12.27-.38.35-.6.45a8.3,8.3,0,0,1-.82.22c0,.15-.13.11-.22.14,0,.19-.07.22-.2.22a.14.14,0,0,0-.12,0c-.25.1-.36-.12-.47-.3-.18.14,0,.3-.05.45l-.05.07a.23.23,0,0,0,0,.14h0a.57.57,0,0,0-.36-.08.15.15,0,0,1-.17-.07c-.09-.12-.22-.22-.24-.39h0l0-.11a2,2,0,0,1-.3-.55,1.1,1.1,0,0,0-.53-.23c-.07,0-.15,0-.17.07s-.16.15-.27.18-.32,0-.47.07a.16.16,0,0,1-.2-.09h0c-.05-.12-.18-.17-.2-.31A4.51,4.51,0,0,1,21.1,53l-.18-.21a.36.36,0,0,0,0-.1,2.21,2.21,0,0,0,0-.25,14.74,14.74,0,0,1-.56-2.1c-.2-.92-.44-1.84-.68-2.75a3.9,3.9,0,0,0-.12-.46.84.84,0,0,1-.06-.49c0-.14-.12-.28-.18-.42v0a.78.78,0,0,0-.12-.55.38.38,0,0,1,0-.21,1.41,1.41,0,0,0-.13-.86,2.94,2.94,0,0,1-.17-.78c-.16,0-.13-.13-.12-.24l-.05-.25c-.17-.16,0-.31,0-.46a.25.25,0,0,1-.13-.17h0c0-.08-.13-.14-.07-.25a.12.12,0,0,1,0-.08h0c0-.12-.12-.23-.1-.37s-.08-.34-.12-.5l0-.07,0-.12a7.81,7.81,0,0,0-.15-1c-.09-.4-.14-.8-.23-1.2a11.32,11.32,0,0,1-.31-1.74l0-.25,0-.19s0,0,0-.06a1.18,1.18,0,0,1-.1-.45c0-.06-.09-.11,0-.19-.08-.43-.16-.85-.23-1.28-.06,0-.06-.07,0-.12L17,34.42h0v-.13l-.07-.39-.14-.36,0-.13c-.06-.32-.09-.65-.12-1s-.08-.47-.1-.7-.13-.19,0-.32l0-.13a.36.36,0,0,1-.08-.27c-.07-.73-.3-1.42-.33-2.16a.5.5,0,0,1,0-.12c-.07,0-.08-.07,0-.12l0-.14s0,0,0,0,0,0,0,0-.08-.06,0-.12l0-.26h0l0-.38,0-.33-.1-.77s0,0,0-.06l-.18-.95a.79.79,0,0,1-.07-.58l.07.21L15.45,25l0-.2a.59.59,0,0,1-.08-.5l0,.05,0-.05-.06-.45c-.08-.64-.17-1.29-.25-1.93l0-.24c-.1,0-.13-.1-.06-.2a.85.85,0,0,0,0-.32c-.05-.32-.1-.64-.12-1a4.92,4.92,0,0,1-.09-.76,3,3,0,0,1-.1-.67,1.32,1.32,0,0,1,0-.56c-.19-1.48-.4-3-.53-4.45-.08-1-.16-2.06-.21-3.09,0-.29,0-.58,0-.87a7.11,7.11,0,0,0,0-1,1.93,1.93,0,0,1,0-.48,1.89,1.89,0,0,0,0-.82.15.15,0,0,1,.05-.2c.07-.06.13-.13.2-.18a8,8,0,0,1,1.5-.86.38.38,0,0,0,.27-.46c0-.1,0-.21,0-.32a.52.52,0,0,1,.33-.5,2.34,2.34,0,0,1,.76-.29,2,2,0,0,1,.63-.2l1.43-.27c.18-.12,1.88-.16,2.06-.3l.28,0a.1.1,0,0,0,.12,0s.5-.1.68,0Z"/><path id="Tracé_134" data-name="Tracé 134" class="cls-2" d="M33.53,42.53l0,0S33.52,42.54,33.53,42.53Z"/></g><g id="Groupe_159" data-name="Groupe 159"><path id="Tracé_138" data-name="Tracé 138" class="cls-3" d="M45.59,8.42l0,0a.1.1,0,0,0-.1.09.28.28,0,0,0,0,.09.13.13,0,0,0,.08,0A.1.1,0,0,0,45.59,8.42Z"/><path id="Tracé_139" data-name="Tracé 139" class="cls-3" d="M45.47,9.9V10h.06s.07,0,.08-.07a.05.05,0,0,0,0-.05.08.08,0,0,0-.1,0Z"/><path id="Tracé_140" data-name="Tracé 140" class="cls-3" d="M45,50.5a2.85,2.85,0,0,1,.71-.12,3,3,0,0,1,1.07.21.46.46,0,0,0,.44-.05,16.76,16.76,0,0,0,2.2-.6,1.49,1.49,0,0,1,.18-.3.57.57,0,0,0,.12-.61.45.45,0,0,1,0-.23.44.44,0,0,0,.21-.38.47.47,0,0,1,.14-.28c.16-.15,0-.3.08-.49s-.15-.29-.1-.45c.12-.38-.1-.67-.2-1.11a.32.32,0,0,1,0-.09c.23,0,.24,0,.15-.21l-.09.05.09-.05v-.13h0c.1-.11.08-.2-.08-.32a4,4,0,0,1-.11-.84.47.47,0,0,1-.05-.1.47.47,0,0,0,.05.1.16.16,0,0,0,0-.12c-.06-.44-.32-.68-.25-1.11a5.51,5.51,0,0,1,.1-.9c0-.1-.18-.46-.18-.56,0-.37,0-.74-.05-1.1a6,6,0,0,0-.1-1.12c-.08-.82-.14-1.63-.26-2.44s-.24-1.63-.4-2.44-.32-1.75-.47-2.63c-.18-1.07-.37-2.15-.55-3.23-.08-.55-.1-1.11-.22-1.66a.89.89,0,0,0-.08-.64c0-.09.06-.17,0-.26-.09-.71-.22-1.42-.3-2.13L47,22.89c-.14-1.22-.3-2.44-.5-3.66-.05-.32-.09-.65-.14-1-.11-.57-.19-1.14-.25-1.71a5.36,5.36,0,0,1-.12-1,.42.42,0,0,0,0-.15,4.48,4.48,0,0,1-.26-1.3h0c.07-.11,0-.17-.08-.19s0-.1-.08-.12v-.12a.52.52,0,0,0,0-.51,1.84,1.84,0,0,1-.13-.65s.08,0,.07-.09-.05,0-.09,0a.5.5,0,0,1-.09-.24c.06-.13,0-.32.19-.39-.06,0-.12,0-.15-.07l.19-.13a.27.27,0,0,0,0-.12s-.06,0-.09,0-.08,0-.12,0l.29-.16s-.1-.05-.1-.07a.48.48,0,0,0-.09-.38.17.17,0,0,1,0-.2c.1-.1.19-.2,0-.23,0,0,0-.07-.06-.1a.69.69,0,0,1,0-.53,1.06,1.06,0,0,0,0-.68c0-.14,0-.17.1-.22s.12,0,.16,0-.18,0-.17-.18-.13,0-.15,0a.24.24,0,0,1,0-.24c.14-.1.25-.2.1-.39,0,0,0,0,0-.06.09-.17,0-.24-.13-.3s-.1-.06-.1-.1-.1-.12-.19-.11-.1,0-.12-.1c.23,0,.46-.09.7-.12-.27-.1-.27-.1-.4-.06S44.92,7,45,6.79s.09-.11.13-.16.13-.3,0-.43l-.22-.12c.18-.08.33-.23.25-.41a.33.33,0,0,1,0-.36c.09-.19,0-.19-.08-.38s-.21,0-.3-.08a4.13,4.13,0,0,1,.58-.52.1.1,0,0,0,0-.1.05.05,0,0,0-.07-.05s0,0,0,0-.29.06-.41.15-.13.06-.21-.06c.24,0,.13-.13.15-.25s-.15,0-.16-.12a1.09,1.09,0,0,1,.22-.49.43.43,0,0,0,.08-.36l-.06-.45a.31.31,0,0,0-.15-.29.2.2,0,0,1-.06-.26l0,0a.56.56,0,0,0,.08-.38l-.33-.06c0-.07.14-.09.08-.19s.3,1.83.45,1.74c-.19,0-.27-.11-.39-.16a.45.45,0,0,1-.3-.46.15.15,0,0,1-.07-.12c-.07-.28-.25-.51-.31-.8,0-.05,0-.1,0-.14V1.35c-.17-.05-.22-.33-.43-.28,0,0,0,0,0-.07,0-.18-.11-.19-.21-.2s-.07,1-.12.9a.79.79,0,0,0-.55-.42l-.11,0c-.32,0-.55-.27-.82-.39L41.42.86a.49.49,0,0,1-.37-.1.83.83,0,0,0-.84-.15c-.21,0-.43.05-.64.1a.33.33,0,0,0-.31.22.46.46,0,0,1,.26,0,.46.46,0,0,0-.26,0c-.12,0-.37-.92-.45-.81s-.2.27-.37.32l-.16.42a.43.43,0,0,1,0,.05s-.07.1-.14.06a.06.06,0,0,1,0-.08c0-.1.1-.05.16,0l.16-.42c-.22,0-.22,0-.3.25-.08-.1,0-.26-.11-.34s0,.06-.05.1c0,.57-.36-.88-.38-.32a1.8,1.8,0,0,0,0,.8,1.79,1.79,0,0,0,0,.46c-.09.1,0,.17,0,.26a.06.06,0,0,0,0,.06c-.27.07-.27.07-.24.35a.86.86,0,0,1,0,.16s-.08,0-.1-.05-.07-.31-.26-.33c0,0-.06-.08-.08-.13A3.29,3.29,0,0,0,36.4,1C36.22.79,36,.8,35.7.77s-.56,0-.84,0C34.8.67,34.7.74,34.61.75c0-.2-.12-.19-.25-.16a.11.11,0,0,1-.11.08c-.26,0-.31.22-.37.43-.21-.08-.12-.27-.16-.41L33.65.63a.16.16,0,0,1-.07-.11h0a.68.68,0,0,1-.32.18.2.2,0,0,0-.16.12,1,1,0,0,0-.12.45h0s0,.08,0,.12a2.25,2.25,0,0,0-.15.62,1.16,1.16,0,0,1-.44.38c-.06,0-.14.06-.18,0s-.19-.1-.3-.09-.3.12-.47.08-.16.07-.17.15-.13.21-.11.35a6.21,6.21,0,0,0-.25.94l-.11.26v.1a1,1,0,0,1,0,.25,16,16,0,0,0,0,2.19c0,.95.05,1.9.06,2.85a4,4,0,0,1,0,.49.74.74,0,0,0,.08.48c.07.12-.05.3-.07.46v0a.86.86,0,0,1,0,.57.41.41,0,0,0,0,.22,1.34,1.34,0,0,1,.1.86,3.05,3.05,0,0,0,0,.8c-.16.05-.09.17-.06.27s0,.17,0,.25.05.31.13.44a.24.24,0,0,0-.08.21h0c0,.08-.1.17,0,.25a.06.06,0,0,0,.06.06h0c0,.14-.06.27,0,.4s0,.34,0,.51l0,.08V16a7.45,7.45,0,0,1,.09,1c0,.41.07.81.09,1.22a12.94,12.94,0,0,0,.15,1.77l0,.26,0,.18v.07a1,1,0,0,0,0,.46c0,.07-.06.14,0,.19l.12,1.3c-.05.05,0,.09,0,.12l.05.39h0l0,.13c0,.13,0,.26,0,.4l0,.39v.13c0,.32.08.64.14,1s0,.47.08.7-.07.23,0,.32v.14a.34.34,0,0,0,0,.28c.12.72.08,1.46.24,2.17,0,.05,0,.09,0,.13s0,.09,0,.12l0,.14,0,0,0,0s0,.08,0,.12l0,.26h0l.05.38,0,.33.1.77a.13.13,0,0,0,0,.06l.07,1a.78.78,0,0,0,.08.58,1.79,1.79,0,0,1,0-.23c0,.08,0,.15,0,.23l0,.2a.7.7,0,0,0,0,.51l0-.07,0,.07.06.44c.09.64.18,1.28.26,1.93l0,.25c-.09.06-.1.13,0,.2a1.12,1.12,0,0,1,0,.32,8.06,8.06,0,0,0,.13,1,4.8,4.8,0,0,0,.11.76,3.81,3.81,0,0,0,.07.67,1.33,1.33,0,0,0,.12.55c.2,1.48.38,3,.65,4.43.19,1,.38,2,.59,3,.06.28.12.57.19.85a5.74,5.74,0,0,1,.21,1,1.43,1.43,0,0,0,.13.46,2.05,2.05,0,0,1,.2.8.15.15,0,0,0,.1.18l.24.1a6.65,6.65,0,0,0,1.66.36.38.38,0,0,1,.38.36c0,.1.09.2.12.3a.46.46,0,0,0,.45.37,2.38,2.38,0,0,0,.8,0,2.36,2.36,0,0,0,.65,0l1.44-.19c.21.07,1.84-.42,2-.34l.28-.07a.12.12,0,0,1,.11-.07s.51,0,.65-.18Z"/><path id="Tracé_141" data-name="Tracé 141" class="cls-3" d="M45.46,10a0,0,0,0,1,0,0S45.44,10,45.46,10Z"/></g></g></g></g></svg>
