<svg id="Composant_3_154" data-name="Composant 3 – 154" xmlns="http://www.w3.org/2000/svg" width="34.925" height="65.118" viewBox="0 0 34.925 65.118">
  <path id="Tracé_101" data-name="Tracé 101" d="M110.459,41.815a1.475,1.475,0,0,1-.48-.517c-.089-.191-.112-1.15-.182-1.359a26.007,26.007,0,0,1-.3-5.532c.006-.962-.091-2.067.166-2.15a6.274,6.274,0,0,1,.855-.24,4.917,4.917,0,0,1,2.729.856v.392l.165.485.076.681V38.5l-.109.458,0,.733c-.142,1.069-.413,2.23-.6,2.233l-.392-.025-.257-.02Z" transform="translate(-93.718 -32.004)" fill="#7ca400"/>
  <path id="Tracé_102" data-name="Tracé 102" d="M70.417,54.6l-.2.16-1.245.549c-.156.1-1.053-.765-1.791-1.62l-.428-.638-.355-.34L64.04,49.154l-.331-.637L63.566,48l-.227-.342c-.05-.295,1.312-1.667,2.019-1.983.213-.095.474.46.851.359.261-.07.821.949,1.383,1.786A22.341,22.341,0,0,1,70.2,52.3c.062.221.6,1.071.635,1.287a1.524,1.524,0,0,1-.1.717Z" transform="translate(-61.91 -41.421)" fill="#7ca400"/>
  <path id="Tracé_103" data-name="Tracé 103" d="M141.6,53.99a1.525,1.525,0,0,1-.1-.717c.037-.216.573-1.066.635-1.287a22.34,22.34,0,0,1,2.611-4.477c.562-.837,1.121-1.856,1.383-1.786.377.1.638-.765.851-.67A5.633,5.633,0,0,1,149,47.346l-.227.342-.143.514-.331.637-2.356,3.553-.355.34-.428.638c-.738.855-1.635,1.719-1.791,1.62l-1.246-.549-.2-.159Z" transform="translate(-115.775 -40.993)" fill="#7ca400"/>
  <g id="Groupe_135" data-name="Groupe 135" transform="translate(0 11.13)">
    <path id="Tracé_104" data-name="Tracé 104" d="M142.521,153.392c.056.046.219.608.177.235C142.514,152.751,142.461,153.028,142.521,153.392Z" transform="translate(-116.47 -126.561)" fill="#030508"/>
    <path id="Tracé_105" data-name="Tracé 105" d="M125.965,97.193c.129.22.237.449.354.676-.158-.38-.338-.75-.52-1.118Z" transform="translate(-104.961 -87.761)" fill="#030508"/>
    <path id="Tracé_106" data-name="Tracé 106" d="M136.645,75.485c.491.346.667.473.688.451s-.117-.188-.319-.343C136.921,75.581,136.251,75.166,136.645,75.485Z" transform="translate(-112.352 -73.02)" fill="#030508"/>
    <path id="Tracé_107" data-name="Tracé 107" d="M93.554,91.732a39.029,39.029,0,0,0-.548-4.138.881.881,0,0,1,.009.42,35.079,35.079,0,0,0-2.5-8.477,22.038,22.038,0,0,0-4.4-6.58,22.434,22.434,0,0,1,3.144,4.694,56.027,56.027,0,0,1,2.256,5.235,24.889,24.889,0,0,1,.766,3.325c.426,2.181.636,3.731.8,5.266a32.84,32.84,0,0,1,.163,5.209c-.027.314-.053.387-.081.408h0a30.975,30.975,0,0,1-.666,5.812,37.118,37.118,0,0,1-1.68,5.707,13.385,13.385,0,0,1-1.155,2.43c.293-.636.017-.184.239-.712-.305.687-.279.743-.291.874a1.147,1.147,0,0,1-.106.336c-.087.185-.239.473-.51.949l-.049-.351a2.923,2.923,0,0,1-.33.741,8.709,8.709,0,0,1-.57.878l-.336.471-.362.475c-.234.325-.484.642-.705.964-.209.19-.16.076.033-.2l.381-.521.488-.683c-.415.533-.614.842-.811,1.114a6.758,6.758,0,0,1-.722.929c.186-.293.367-.587.529-.892a3.824,3.824,0,0,1-.476.662,5.486,5.486,0,0,1-.506.516c-.183.152-.354.29-.514.413a21.134,21.134,0,0,0,3.037-3.768q.287-.449.561-.92a31.135,31.135,0,0,0,3.068-7.5q.16-.594.3-1.2.268-1.144.467-2.337c-.075.534-.149,1.031-.211,1.463a35.649,35.649,0,0,0,.637-4.114c.088-.574.189-1.441.243-1.527-.024.008-.049,0-.078.07.039-1.13.062-2.259.012-3.387,0,.688-.034,1.375-.061,2.061,0-.029,0-.062,0-.094.012-.413.02-.828.02-1.246q0-.686-.022-1.363-.044-1.355-.173-2.672a37.867,37.867,0,0,0-1.475-7.451q-.357-1.158-.782-2.252a29.759,29.759,0,0,0-1.415-3.115q-.517-.981-1.093-1.881t-1.2-1.71q-.627-.81-1.3-1.525a17.758,17.758,0,0,0-1.4-1.327,14.248,14.248,0,0,0-3.439-2.186,8.053,8.053,0,0,1,.756.288,6.221,6.221,0,0,0-.625-.263c-.15-.054-.3-.112-.448-.166-.1-.043-.209-.08-.314-.12-.545-.237-.485-.256-.2-.189.151.039.368.09.573.163l.54.2c-.288-.119-.513-.222-.7-.282s-.325-.1-.426-.124c-.2-.051-.254-.043-.246-.011s.054.068.093.107a10.936,10.936,0,0,0-6.693-.179c.259-.09.527-.178.81-.252a10.592,10.592,0,0,1,2.249-.379,9.372,9.372,0,0,0-1.913.175c-.243.058-.487.106-.776.181l-.472.14a5.658,5.658,0,0,0-.576.187c-.648.2-1.083.365-1.508.5a9.882,9.882,0,0,0-1.344.581l.573-.212c-.767.516-1.024.7-1.251.842a5.086,5.086,0,0,0-.935.775l-.078-.186a8.2,8.2,0,0,1-.839.806c-.327.313-.682.6-.871.791l-.219.444c-.212.2-.384.4-.548.574s-.314.33-.437.474a3.927,3.927,0,0,1-.6.594l.167-.02A15.776,15.776,0,0,0,63.238,76.3c-.453.762-.791,1.334-.553.679-.144.307-.225.61-.567,1.263l-.161.047c-.432.976-.853,2.085-1.025,2.347a3.986,3.986,0,0,0,.234-.944c-.857,2.095-.778,2.373-.745,2.566.054.2.082.325-.424,2.232l-.066-.064c-.053.332-.113.661-.159.993l-.32,1.006a11.673,11.673,0,0,1-.157,1.5c-.08.618-.2,1.33-.282,2.076a25.9,25.9,0,0,0-.231,4.306,35.31,35.31,0,0,0,.046,3.95l.113-.126a31.115,31.115,0,0,0,.378,4.088c.239,1.676.62,3.322.678,4.015.517,1.273-.025-.144.086-.145.455,1.253.7,1.919.853,2.455.179.526.245.928.512,1.58.739,1.478-.48-1.168-.028-.4a11.834,11.834,0,0,0,1.055,2.109c.323.493.647,1.065,1.487,2.383.12.294-.5-.637-.693-.9a31.8,31.8,0,0,0,2.7,3.466,16.537,16.537,0,0,0,4.083,3.284,12.608,12.608,0,0,0,2.917,1.264,11.845,11.845,0,0,0,3.586.466,12.227,12.227,0,0,0,3.69-.672,14.65,14.65,0,0,0,3.2-1.583l.043-.085a17.207,17.207,0,0,0,4.332-4.171c-.219.273-.469.525-.7.785a29.241,29.241,0,0,0,1.977-2.894c.162-.188.334-.372.486-.568a8.43,8.43,0,0,0,.625-1.553,17.794,17.794,0,0,0,1.076-2.336c.329-.859.582-1.652.674-1.944.187-.386-.084.529-.12.736a13.983,13.983,0,0,0,.411-1.6c.086-.429.2-.9.441-1.9l.042-.025c.234-1.206.462-2.493.616-3.838s.267-2.742.3-4.159S93.655,93.147,93.554,91.732ZM70.819,82.454c.242-.346.494-.713.75-1.1.384-.578.78-1.2,1.17-1.842.26-.43.518-.873.768-1.324q.188-.339.37-.683c.242-.459.475-.924.694-1.393s.424-.94.61-1.41a16.984,16.984,0,0,0,.807-2.591c-.085.467-.183.869-.246,1.2a10.1,10.1,0,0,0,.3-1.1l.023-.1.012-.052c0-.026.028,0,.041,0a1.751,1.751,0,0,1,.2.079,2.527,2.527,0,0,1,.371.221,3.513,3.513,0,0,1,.643.6,3.356,3.356,0,0,1,.379.654c.106.215.172.371.134.367l-.224-.331a2.875,2.875,0,0,0-.207-.3c-.075-.094-.152-.186-.235-.273s-.134-.134-.2-.2a2.545,2.545,0,0,0-.415-.3,1.575,1.575,0,0,0-.222-.108c-.038-.016-.078-.027-.115-.039l-.026.126c-.036.161-.059.308-.107.47l-.064.236-.032.118-.052.162c-.14.45-.3.893-.475,1.339-.35.888-.765,1.774-1.231,2.706A10.211,10.211,0,0,1,73.2,79.309c.246-.46.006-.145.192-.531-.525.993.147.217-.725,1.592l-.071-.29c-.145.67-1.105,1.653-1.649,2.666-.146.145-.128.056-.013-.163s.348-.565.59-.935a16.692,16.692,0,0,0-.978,1.613c.08-.243.169-.483.256-.73a4.986,4.986,0,0,1-.566.99c-.109.144-.212.276-.306.4A13.273,13.273,0,0,1,70.819,82.454Zm-1.041,1.773c.07-.019.133,0-.194.685-.2.409-.153.177-.22.265a3.937,3.937,0,0,1-.3,1.113c-.1.1.08-.46.041-.531C69.315,85.221,69.539,84.709,69.779,84.226Zm-1.243,3.187c-.006.134.154-.279.079.144-.191.594-.263.689-.3.644Q68.418,87.8,68.536,87.413Zm12.315,32.653a3.489,3.489,0,0,1-.819.277c-.09.014-.111,0-.1-.028.338-.122.673-.258,1-.411-.032.025-.009.026.029.021C81.048,119.914,81.192,119.878,80.851,120.066Zm3.223-2.03c-.5.369-.278.135-.407.205a4.09,4.09,0,0,1-1.191.993c-.09.02.032-.082.179-.2a1.559,1.559,0,0,0,.307-.3c.166-.115.333-.228.5-.351.431-.325.85-.682,1.259-1.061C84.8,117.328,84.83,117.39,84.073,118.036Zm.236-15.463c.2-.7.367-1.514.54-2.263-.432,1.276-.4,1.421-.854,2.665A12.375,12.375,0,0,1,82.89,104.9l.29-.341c-.48,1.25-.442.8-.835,1.785l-.148-.134a4.32,4.32,0,0,1-.92,1.368c-.032.114-.061.234-.1.347a3.265,3.265,0,0,1-1.255.954l.137.046c-.074.037-.279.191-.544.361-.131.086-.281.173-.432.257l-.23.122c-.112.056.4.111.3.163a2.717,2.717,0,0,0-.25.167.764.764,0,0,0-.138.222c-.062.149-.09.281-.118.36-.043.16-.088.13-.048-.263a2.454,2.454,0,0,0-.038.307l-.009.162v.121c0,.168-.007.369-.029.649l-.127.079c-.01.814.042,1.7-.018,1.932a2.326,2.326,0,0,0-.153-.72c.025,1.7-.132,1.864-.029,1.987a.6.6,0,0,1,.173.326c.03.108-.251.259-.217.474l.091.633-.086-.048.135.416.008.028c.012.041-.047.019-.089.009a.726.726,0,0,1-.124-.035c-.079-.03-.151-.062-.216-.093a.692.692,0,0,1-.439,0c-.311-.062-.666-.159-1.044-.274a16.762,16.762,0,0,1-1.988-.724c.023-.139.043-.271.071-.4a1.442,1.442,0,0,1,.077-.246,1.168,1.168,0,0,0,.074-.456c0-.1,0-.2,0-.281s.016-.162.031-.256c.031-.186.081-.388.14-.618a7.135,7.135,0,0,0,.275-1.746l-.125.087c.009-.076.021-.133.028-.269s.008-.271.012-.425c0-.079,0-.161,0-.246-.006-.039.014-.1-.014-.122l-.111-.067-.485-.29L74,109.98c-.117-.071-.224-.164-.34-.247a6.514,6.514,0,0,1-.681-.549,6.383,6.383,0,0,1-1.707-2.206c-.63-.69.037.093-.053.136-.146-.176-.282-.327-.387-.475s-.189-.284-.265-.406a3.18,3.18,0,0,1-.319-.621c-.072-.179-.126-.336-.186-.5s-.105-.355-.19-.581c-.525-1.008.316.809-.02.293l-.375-.921c-.1-.231-.186-.4-.273-.587a8.282,8.282,0,0,1-.582-1.881c.012-.226.187.537.29.742a14.389,14.389,0,0,1-.67-3,27.834,27.834,0,0,1-.207-3.66,31.274,31.274,0,0,1,.528-4.627,22.982,22.982,0,0,1,1.407-4.739l-.021-.069.853-1.762c.163-.291.315-.6.5-.886L71.6,83l.342-.473c-.158.193-.34.406-.477.583.5-.864.876-1.328,1.366-2.157l.4-.39c.516-.92.152-.453.485-1.143a14.675,14.675,0,0,0,.959-1.655c.312-.612.563-1.185.663-1.391.188-.264-.092.4-.132.549.49-1.15.358-1.11.912-2.565l.042-.012c.052-.162.095-.331.144-.5l.073-.254.018-.064a.156.156,0,0,0,0-.025l.007-.041c.01-.058.02-.117.031-.176s.013-.1.02-.155c-.01-.093.067-.036.109-.026a.762.762,0,0,1,.145.085,1.105,1.105,0,0,1,.144.126,3.094,3.094,0,0,1,.315.406c.435.715.881,1.421,1.269,2.165.195.371.407.759.587,1.131s.374.746.538,1.13.334.761.487,1.143.3.764.445,1.14a.559.559,0,0,1-.044-.306c.718,1.958,1.307,4.145,1.881,6.225s1.132,4.065,1.734,5.632c-.657-2.19-1.339-6.006-2.175-8.186-.138-.854-.637-2.085-.628-2.461a21.845,21.845,0,0,0-1.44-3.688c-.262-.511-.527-1.007-.835-1.555s-.629-1.135-1.038-1.815c-.213-.4-.046-.245-.061-.39.455.709.88,1.431,1.276,2.176-.218-.465-.439-.929-.68-1.383l.027.041c.093.163.177.317.262.473.055.1.11.206.167.315.085.164.176.339.278.539l.222.437c.319.627.613,1.282.887,1.958a43.256,43.256,0,0,1,1.442,4.274q.16.556.313,1.12c.917,3.379,1.672,6.925,2.7,10.148.059.185.115.4.168.627s.1.483.144.749c.075.458.132.96.17,1.471-.038-.2-.078-.4-.123-.606.054.3.1.6.143.91,0,.06.006.119.008.179-.047.946-.157-.247-.23-.645.086.9.117,1.069.174,1.042.022-.011.045-.055.067-.093,0,.118.006.235.006.352a8.717,8.717,0,0,1-.273,2.4C84.82,101.078,84.579,101.824,84.31,102.572Z" transform="translate(-58.742 -67.82)" fill="#fff"/>
    <path id="Tracé_108" data-name="Tracé 108" d="M168.79,143.4c-.03-.339-.084-.676-.125-1.014l.07.822.044.824Z" transform="translate(-134.506 -119.218)" fill="#030508"/>
  </g>
  <path id="Tracé_109" data-name="Tracé 109" d="M100.5,92.9c.626.183.4.028.653.491.873.744,1.09,2.507,1.644,3.518,2.184,3.988,2.811,10.335,4.375,14.889a10.222,10.222,0,0,1,.057,5.072,18.432,18.432,0,0,1-2.832,5.89c-.615.747-1.906,3.375-2.613,4.049-.269.257-.213,3.62-.218,6.1h-.218c-.416-.268-1.07-.251-1.553-.491l-.218-.163c.667-1.549.333-3.48.245-5.281-7.063-3.462-7.728-17.749-4.024-24.338C97.123,100.29,99.877,95.777,100.5,92.9Z" transform="translate(-82.756 -73.979)" fill="#7ca400" fill-rule="evenodd"/>
  <g id="Groupe_137" data-name="Groupe 137" transform="translate(11.595 22.732)">
    <g id="Groupe_136" data-name="Groupe 136" transform="translate(5.006)">
      <path id="Tracé_110" data-name="Tracé 110" d="M113.053,130.706l.182-3.077a13.906,13.906,0,0,1-.026-3.019c-.387-3.527-.587-6.411-.974-9.656-.385-2.962.947-4.043.173-6.864.387-.142.378-1.946.765-2.37.387-.141,0-.564.387-.564a50.639,50.639,0,0,0-.252,10.822c.387,5.644,1.855,6.5.635,11.709a9.472,9.472,0,0,1-.248,2.733c-.123,1.038.372,2.873-.4,3.579C112.907,133.152,113.439,132.117,113.053,130.706Z" transform="translate(-112.164 -105.156)" fill="#fff"/>
    </g>
    <path id="Tracé_111" data-name="Tracé 111" d="M102.132,172.923a7.723,7.723,0,0,1-2.048-1.746c-.268-.367-.877-.658-1.226-1.086-.966-.2-.676-.426-1.4-1.018-.476-.378-.076-.139-.57-.354a2.844,2.844,0,0,0-.837-.249,2.46,2.46,0,0,0,.709.832c.557.492.328.443.984,1.11-.132.095.36.262.222.348,1.54.874,2.677,2.266,4.341,3.09.1-.154-.508-.695-.177-.816h0Z" transform="translate(-96.054 -148.795)" fill="#fff"/>
    <path id="Tracé_112" data-name="Tracé 112" d="M121,166.192c-.709.962-.3.115-.754.527-.319.3-.462.664-.787,1.023-.228.253-.217.272-.443.543-.365.437-.5.548-.849.994-.218.279-.447.467-.654.736a3.517,3.517,0,0,1-.634.656c-.686.512-.805,1.3-1.164,1.675.562-.564.492.171,1.045-.4-.165.133.914-1.079.971-.938,1.917-1.921,2.549-3.344,3.938-4.743-.011-.334.006-.287,0-.449Z" transform="translate(-109.605 -146.964)" fill="#fff"/>
    <path id="Tracé_113" data-name="Tracé 113" d="M117.2,152.7c.572-.927-.194.487.08.075a8.922,8.922,0,0,0,.867-.765c.194-.247.378-.594.576-.871.327-.459.874-.834,1.209-1.335.215-.323.2-.714.412-1.039.188-.289.16-.069.345-.349.565-.853.267-1.022.7-1.557-.675.8-.372-.017-1.024.79.147-.142-1.188,1.626-1.278,1.464-.482.583-.873,1.078-1.207,1.517-.243.32-.458.611-.658.883-.536.733-.083.46-.508,1.2.078.274-.091.167-.052.3Z" transform="translate(-110.254 -133.896)" fill="#fff"/>
    <path id="Tracé_114" data-name="Tracé 114" d="M96.12,148.556c.35.326.508-.087.915.2s1.2,1,1.62,1.272c.484.317.344.31.745.643,1.308,1.243,1.844,1.684,2.984,2.8-.311-.15-.215.822-.387.554-.4-.094-.679-.4-1.1-.5-.305-.392-1.064-1.194-1.417-1.563-.558-.585-.783-.475-1.391-1.037-.8-.738-1.257-1.592-1.973-2.366Z" transform="translate(-96.099 -135.069)" fill="#fff"/>
    <path id="Tracé_115" data-name="Tracé 115" d="M118.591,128.566c-.317.363-.507.045-.892.382s-1.646,1.535-2.045,1.865c-.463.382-.836,1.383-1.206,1.761-.7.729.124,1.132.268.963.314-.367.984-1.281,1.552-2.017.365-.473,1.1-1.038,1.432-1.479.381-.5.7-1.216.892-1.475Z" transform="translate(-108.539 -121.291)" fill="#fff"/>
    <path id="Tracé_116" data-name="Tracé 116" d="M100.834,132.127c.787.832.414.148.787.519a13.077,13.077,0,0,1,1.124.707,9.747,9.747,0,0,1,1.32,1.641c.009.044.627,1.325.213,1.151a33.592,33.592,0,0,1-2.98-2.689,8.958,8.958,0,0,1-1.1-1.124c.065-.233-.077-.386-.044-.5Z" transform="translate(-98.878 -123.543)" fill="#fff"/>
  </g>
</svg>
