<svg xmlns="http://www.w3.org/2000/svg" xmlns:xlink="http://www.w3.org/1999/xlink" width="151.466" height="67.78" viewBox="0 0 151.466 67.78">
  <defs>
    <clipPath id="clip-path">
      <rect id="Rectangle_52" data-name="Rectangle 52" width="101.648" height="56.431" fill="#fff"/>
    </clipPath>
  </defs>
  <g id="Groupe_439" data-name="Groupe 439" transform="translate(10913.179 -6257.385)">
    <g id="Groupe_413" data-name="Groupe 413" transform="translate(-10887.741 6264.823)">
      <g id="Groupe_412" data-name="Groupe 412" clip-path="url(#clip-path)">
        <path id="Tracé_328" data-name="Tracé 328" d="M15.74,86.713l.034.014c-.792-.326-1.67-.651-2.631-.995a16.564,16.564,0,0,1-2.931-1.418l-.033-.017c-.221-.9-.5-1.964-.825-3.178s-.691-2.462-1.084-3.732S7.453,74.892,7,73.72A27.814,27.814,0,0,0,5.638,70.7l-.065-.144c-.065.671-.1,1.5-.1,2.485s.016,2.011.048,3.071.07,2.076.113,3.046.075,1.746.1,2.324a3.311,3.311,0,0,1-1.43-.427c-.587-.291-1.165-.612-1.734-.956s-1.078-.68-1.526-1a8.249,8.249,0,0,0-.827-.549c.042.028.073-.272.093-.9s.031-1.476.031-2.532V71.479q0-2.058-.015-4.258C.316,65.756.3,64.3.264,62.874S.207,60.136.186,58.946s-.047-2.2-.078-3.026S.041,54.546,0,54.274c1.16-.958,2.449-1.988,3.874-3.069A18.277,18.277,0,0,1,8.4,48.621a3.485,3.485,0,0,1,3.5.033,6.439,6.439,0,0,1,2.448,3.352,16.97,16.97,0,0,1,.929,5.613,18.368,18.368,0,0,1-1,6.3,9.859,9.859,0,0,1-1.7,3.372A3.4,3.4,0,0,1,9.947,68.6l-.132-.009-.033,0v.051q.693,1.928,1.524,3.995t1.636,4.317q.8,2.244,1.547,4.693a51.186,51.186,0,0,1,1.252,5.069M4.609,57.389q.032.546.048,1.249t.016,1.433q0,.73.016,1.413a10.193,10.193,0,0,0,.08,1.148l.032,0q.738-.017,1.612-.085a6.006,6.006,0,0,0,1.66-.355A1.915,1.915,0,0,0,9.041,61.1a5.584,5.584,0,0,0,.411-1.775,6.332,6.332,0,0,0-.132-1.831,2.344,2.344,0,0,0-.657-1.283,1.506,1.506,0,0,0-1.828-.288,8.192,8.192,0,0,0-2.226,1.47" transform="translate(0 -37.697)" fill="#fff"/>
        <path id="Tracé_329" data-name="Tracé 329" d="M91.367,28.875a18.122,18.122,0,0,1,.373,2.158q.125,1.11.2,2.265.071,1.81.089,3.592t-.018,3.6q-.107,3.862-.071,7.492t-.107,7.407q-.054,1.195-.107,2.387c-.048,1.689-.178,3.38-.391,5.061a24.454,24.454,0,0,1-.959,4.484,5.532,5.532,0,0,1-1.575,2.4,5,5,0,0,1-2.062,1.04,4.394,4.394,0,0,1-1.98.1,8.035,8.035,0,0,1-2-.652,13.5,13.5,0,0,1-1.4-.842,6.436,6.436,0,0,1-1.277-1.185,8.761,8.761,0,0,1-1.083-1.664,9.957,9.957,0,0,1-.788-2.264,18.262,18.262,0,0,1-.632-3.436c-.1-1.175-.165-2.341-.188-3.509q-.1-4.713-.221-9.419c-.08-3.136-.063-6.265.051-9.44a48.85,48.85,0,0,1,.392-5.523,20.006,20.006,0,0,1,1.42-5.33,9.81,9.81,0,0,1,.79-1.381,12.216,12.216,0,0,1,2.47-2.315,7.173,7.173,0,0,1,2.682-1.2,4.807,4.807,0,0,1,2.633.206,5.213,5.213,0,0,1,2.314,1.837,11.467,11.467,0,0,1,1.454,4.127M87.582,46.519q-.035-2.371-.07-4.738c0-.046-.018-.522-.053-1.425s-.065-1.746-.088-2.534a13.4,13.4,0,0,0-.545-3.475,4.154,4.154,0,0,0-1.281-2.138,1.264,1.264,0,0,0-1.433.052,4.268,4.268,0,0,0-1.288,1.361,12.563,12.563,0,0,0-1.629,4.728C81.009,40,80.9,41.708,80.865,43.5s-.029,3.574.017,5.364q.172,2.243.242,4.593a35.64,35.64,0,0,0,.415,4.529,5.985,5.985,0,0,0,1.005,2.2A3.082,3.082,0,0,0,83.971,61.3a1.988,1.988,0,0,0,1.538-.112,2.945,2.945,0,0,0,1.3-1.464,12.874,12.874,0,0,0,.457-1.286,5.323,5.323,0,0,0,.176-1.125q.035-.622.018-1.5t.053-2.329q.035-1.39.053-2.436t.018-1.185Z" transform="translate(-60.351 -17.695)" fill="#fff"/>
        <path id="Tracé_330" data-name="Tracé 330" d="M161.959,33.053q1.357,13.653,2.717,27.428v.079a4.534,4.534,0,0,1-2.391.247,7.251,7.251,0,0,1-2.46-.834l-.037,0q-.216-1.258-.416-2.979t-.4-3.513q-.2-1.793-.416-3.429t-.469-2.806a2.658,2.658,0,0,0-.721-.194l-.451-.027a2.763,2.763,0,0,0-.433.012,3.862,3.862,0,0,1-.63,0,27.266,27.266,0,0,0-.414,2.831q-.162,1.627-.324,3.4t-.342,3.422a20.268,20.268,0,0,1-.5,2.891.049.049,0,0,0-.054.03.048.048,0,0,1-.054.03,3.136,3.136,0,0,1-1.436-.222c-.765-.225-1.959-.449-3.575-.728-.024,0-.048-.034-.071-.087.047-.331.13-1.266.249-2.81s.286-3.547.5-6.022.469-5.339.767-8.6.649-6.758,1.055-10.493.847-7.651,1.326-11.753,1-8.216,1.58-12.345a2,2,0,0,1,.54-.151q.287-.039.756-.1t1.207-.183a17.953,17.953,0,0,0,1.931-.469q.108,1,.343,3.028t.506,4.616q.271,2.584.579,5.523t.6,5.659q.289,2.719.543,4.977t.4,3.585m-3.688,5.016q-.362-6.643-.631-10.328t-.469-4.984q-.2-1.3-.4-.558a19.482,19.482,0,0,0-.36,2.966q-.162,2.228-.36,5.594t-.45,7.253a7.028,7.028,0,0,0,1.3.068q.685-.023,1.371-.01" transform="translate(-116.678 -4.433)" fill="#fff"/>
        <path id="Tracé_331" data-name="Tracé 331" d="M243.264,54.6l.036-.006c-.836.144-1.768.356-2.8.628a10.826,10.826,0,0,1-3.169.355l-.036,0q-.361-1.733-.9-4.159T235.2,46.309q-.651-2.68-1.41-5.305t-1.52-4.648l-.073-.233q-.109,1.8-.109,4.418t.054,5.392q.054,2.774.127,5.271t.108,3.98a3.165,3.165,0,0,1-1.612.773,14.7,14.7,0,0,1-1.975.243,11.214,11.214,0,0,1-1.758-.032,2.8,2.8,0,0,0-.961-.01A12.086,12.086,0,0,0,226.181,54q.036-2.157.036-5.688V40.193q0-4.59-.018-9.494t-.073-9.729q-.054-4.825-.091-8.865t-.091-6.9q-.054-2.862-.127-3.881A37.472,37.472,0,0,1,230.278.17a10.043,10.043,0,0,1,5.068.376A6.237,6.237,0,0,1,239.17,3.56a20.6,20.6,0,0,1,2.624,6.148,32.058,32.058,0,0,1,.986,7.715,27.707,27.707,0,0,1-1.058,8.03,16.146,16.146,0,0,1-1.815,4.536,4.063,4.063,0,0,1-2.865,2.1l-.144,0h-.036v.077q.758,2.845,1.659,5.608t1.764,5.506q.863,2.746,1.652,5.548t1.326,5.767M231.111,12.335q.035,1.02.054,2.311t.018,2.623q0,1.332.018,2.584t.091,2.114h.036a17.575,17.575,0,0,0,1.811.256,4.386,4.386,0,0,0,1.845-.2,2.223,2.223,0,0,0,1.066-1.487,10.276,10.276,0,0,0,.451-2.614,14.372,14.372,0,0,0-.144-2.865,6.662,6.662,0,0,0-.723-2.319c-.53-1.06-1.205-1.576-2.025-1.532a4.278,4.278,0,0,0-2.5,1.131" transform="translate(-176.735 0)" fill="#fff"/>
        <path id="Tracé_332" data-name="Tracé 332" d="M328.739,59.206l.034-.014q-1.193.473-2.672,1.167a13.126,13.126,0,0,1-3.045,1.01l-.035.011c-.232-.936-.522-2.061-.871-3.393s-.733-2.742-1.153-4.241-.875-2.995-1.367-4.493-.984-2.84-1.478-4.016l-.071-.2q-.106,1.619-.106,3.968t.053,4.828q.053,2.48.124,4.7t.106,3.542a4.186,4.186,0,0,1-1.571,1.026,17.434,17.434,0,0,1-1.932.628,12.067,12.067,0,0,1-1.726.329,3.084,3.084,0,0,0-.946.185,11.379,11.379,0,0,0,.107-2.05q.035-2.036.036-5.357V49.2q0-4.317-.018-8.929t-.072-9.155q-.053-4.544-.089-8.355t-.089-6.517q-.053-2.706-.125-3.683a30.19,30.19,0,0,1,4.376-.149,11.653,11.653,0,0,1,4.928,1.432,8.382,8.382,0,0,1,3.686,3.4,21.075,21.075,0,0,1,2.513,5.593,24.141,24.141,0,0,1,.94,6.408,19.064,19.064,0,0,1-1.009,6.467,12.775,12.775,0,0,1-1.736,3.735,4.125,4.125,0,0,1-2.754,1.835l-.139.006H322.6v.067c.488,1.615,1.02,3.184,1.6,4.695s1.142,2.991,1.693,4.438,1.078,2.888,1.58,4.318a39.847,39.847,0,0,1,1.264,4.4M317.025,23.587q.035.926.053,2.095t.018,2.372q0,1.2.018,2.336T317.2,32.3l.035,0q.812.191,1.763.319a4.658,4.658,0,0,0,1.79-.086,1.832,1.832,0,0,0,1.031-1.232,7.739,7.739,0,0,0,.436-2.225,11.274,11.274,0,0,0-.139-2.486,6.044,6.044,0,0,0-.7-2.093,2.557,2.557,0,0,0-1.962-1.607,3.768,3.768,0,0,0-2.432.691" transform="translate(-244.055 -9.696)" fill="#fff"/>
        <path id="Tracé_333" data-name="Tracé 333" d="M410.82,70.1l.031-.021q-1.088.73-2.445,1.679A20.769,20.769,0,0,1,405.6,73.43l-.032.018c-.215-.55-.483-1.217-.807-2.029s-.68-1.688-1.07-2.645-.815-1.93-1.273-2.929-.919-1.915-1.381-2.731l-.066-.144c-.066.792-.1,1.761-.1,2.9s.017,2.316.049,3.513.071,2.332.116,3.4.076,1.916.1,2.548a6.22,6.22,0,0,1-1.474,1.181q-.914.545-1.819.986a15.909,15.909,0,0,1-1.631.7,4.338,4.338,0,0,0-.9.381,7.987,7.987,0,0,0,.1-1.645q.034-1.616.034-4.236V66.67q0-3.407-.017-7.047t-.068-7.232q-.05-3.594-.085-6.614T395.2,40.6q-.051-2.154-.119-2.947a28.492,28.492,0,0,1,4.135,1.018,16.982,16.982,0,0,1,4.608,2.478,12.656,12.656,0,0,1,3.412,3.425,20.061,20.061,0,0,1,2.308,4.2,11.546,11.546,0,0,1,.86,4,7.392,7.392,0,0,1-.923,3.733,7.806,7.806,0,0,1-1.593,2.281,4.571,4.571,0,0,1-2.542,1.277l-.129.01-.032,0v.045a26.536,26.536,0,0,0,1.477,2.981q.8,1.375,1.559,2.57t1.449,2.266A14.19,14.19,0,0,1,410.82,70.1M399.977,47.177q.033.691.05,1.558t.016,1.756q0,.89.017,1.729t.083,1.421l.033,0q.762.195,1.651.349a5.846,5.846,0,0,0,1.668.063,1.327,1.327,0,0,0,.959-.765,3.767,3.767,0,0,0,.4-1.466,5.827,5.827,0,0,0-.129-1.7,4.291,4.291,0,0,0-.648-1.547,3.119,3.119,0,0,0-1.827-1.48,3.827,3.827,0,0,0-2.276.083" transform="translate(-309.203 -29.473)" fill="#fff"/>
      </g>
    </g>
    <g id="Groupe_120" data-name="Groupe 120" transform="translate(-10757.938 6298.592) rotate(120)">
      <path id="Tracé_26" data-name="Tracé 26" d="M1.028,10.13a1.539,1.539,0,0,1-.5-.535C.434,9.4.409,8.407.335,8.191A26.646,26.646,0,0,1,.016,2.479c0-.993-.1-2.135.169-2.22a6.617,6.617,0,0,1,.89-.246A5.168,5.168,0,0,1,3.918.9v.4l.172.5.081.7.007,4.2-.112.472,0,.757c-.146,1.1-.426,2.3-.618,2.3l-.408-.026L2.769,10.2Z" transform="translate(14.925 0)" fill="#fff"/>
      <path id="Tracé_27" data-name="Tracé 27" d="M7.385,9.228l-.21.164-1.3.564c-.162.1-1.1-.791-1.868-1.676l-.446-.66L3.193,7.27.734,3.6.388,2.94l-.15-.531L0,2.055C-.051,1.751,1.365.336,2.1.011c.222-.1.495.476.887.372.273-.072.856.981,1.443,1.846A23.123,23.123,0,0,1,7.158,6.857c.066.228.625,1.107.663,1.33a1.558,1.558,0,0,1-.1.739Z" transform="translate(0 4.359)" fill="#fff"/>
      <path id="Tracé_28" data-name="Tracé 28" d="M.118,9.225a1.566,1.566,0,0,1-.106-.74c.038-.223.595-1.1.659-1.328A22.93,22.93,0,0,1,3.382,2.539C3.966,1.676,4.547.625,4.819.7c.393.1.663-.788.885-.69A5.857,5.857,0,0,1,7.811,2.379l-.235.353-.148.53-.343.657L4.637,7.584l-.37.35-.444.658c-.767.881-1.7,1.772-1.862,1.669l-1.3-.569L.452,9.527Z" transform="translate(25.302 4.21)" fill="#fff"/>
    </g>
    <g id="Groupe_120-2" data-name="Groupe 120" transform="translate(-10916.972 6284.08) rotate(-60)">
      <path id="Tracé_26-2" data-name="Tracé 26" d="M1.033,10.176a1.546,1.546,0,0,1-.5-.537c-.093-.2-.119-1.194-.193-1.41A26.769,26.769,0,0,1,.016,2.491c0-1-.1-2.145.17-2.23A6.648,6.648,0,0,1,1.079.014,5.192,5.192,0,0,1,3.936.907v.406l.173.5.081.706L4.2,6.742l-.113.475,0,.761c-.147,1.109-.428,2.312-.621,2.315l-.41-.026-.269-.021Z" transform="translate(14.994 0)" fill="#fff"/>
      <path id="Tracé_27-2" data-name="Tracé 27" d="M7.419,9.271l-.211.165L5.905,10c-.163.1-1.1-.8-1.877-1.683L3.58,7.657,3.208,7.3.737,3.615.39,2.953.239,2.42,0,2.064C-.052,1.759,1.371.337,2.11.011c.223-.1.5.478.891.374.274-.072.86.986,1.45,1.855a23.23,23.23,0,0,1,2.74,4.648c.066.229.628,1.112.667,1.337a1.566,1.566,0,0,1-.1.743Z" transform="translate(0 4.38)" fill="#fff"/>
      <path id="Tracé_28-2" data-name="Tracé 28" d="M.119,9.267a1.573,1.573,0,0,1-.106-.743C.05,8.3.61,7.419.674,7.19A23.036,23.036,0,0,1,3.4,2.551C3.984,1.684,4.568.628,4.841.7c.395.105.666-.792.889-.693A5.884,5.884,0,0,1,7.847,2.39l-.236.355-.149.533-.345.66L4.659,7.619l-.372.352-.446.661c-.77.885-1.707,1.78-1.871,1.677l-1.3-.571L.454,9.571Z" transform="translate(25.419 4.229)" fill="#fff"/>
    </g>
  </g>
</svg>
